<svg xmlns="http://www.w3.org/2000/svg" xmlns:xlink="http://www.w3.org/1999/xlink" width="500" zoomAndPan="magnify" viewBox="0 0 375 374.999991" height="500" preserveAspectRatio="xMidYMid meet" version="1.2"><g id="7690b17e90"><path style=" stroke:none;fill-rule:evenodd;fill:#283593;fill-opacity:1;" d="M 179.292969 32.515625 C 184.371094 29.664062 190.628906 29.664062 195.699219 32.515625 C 220.800781 46.605469 296.339844 89.011719 321.449219 103.101562 C 326.53125 105.945312 329.65625 111.214844 329.65625 116.914062 C 329.65625 145.09375 329.65625 229.902344 329.65625 258.082031 C 329.65625 263.785156 326.53125 269.050781 321.449219 271.902344 C 296.347656 285.992188 220.808594 328.398438 195.699219 342.488281 C 190.621094 345.339844 184.363281 345.339844 179.292969 342.488281 C 154.191406 328.398438 78.652344 285.992188 53.542969 271.902344 C 48.46875 269.050781 45.34375 263.789062 45.34375 258.089844 C 45.34375 229.910156 45.34375 145.101562 45.34375 116.921875 C 45.34375 111.222656 48.46875 105.953125 53.550781 103.101562 C 78.644531 89.011719 154.199219 46.605469 179.292969 32.515625 Z M 179.292969 32.515625 "/><path style=" stroke:none;fill-rule:evenodd;fill:#5c6bc0;fill-opacity:1;" d="M 47.617188 265.347656 C 45.628906 262.683594 45.34375 260.15625 45.34375 256.75 C 45.34375 228.738281 45.34375 144.410156 45.34375 116.390625 C 45.34375 110.71875 48.464844 105.480469 53.527344 102.652344 C 78.539062 88.648438 153.824219 46.484375 178.835938 32.46875 C 183.902344 29.632812 190.761719 29.695312 195.828125 32.53125 C 220.839844 46.535156 295.867188 88.339844 320.878906 102.347656 C 322.902344 103.484375 324.441406 104.851562 325.820312 106.65625 Z M 47.617188 265.347656 "/><path style=" stroke:none;fill-rule:evenodd;fill:#ffffff;fill-opacity:1;" d="M 187.5 82.75 C 245.3125 82.75 292.246094 129.6875 292.246094 187.503906 C 292.246094 245.316406 245.3125 292.253906 187.5 292.253906 C 129.6875 292.253906 82.753906 245.316406 82.753906 187.503906 C 82.753906 129.6875 129.6875 82.75 187.5 82.75 Z M 187.5 135.125 C 216.402344 135.125 239.875 158.589844 239.875 187.503906 C 239.875 216.40625 216.402344 239.878906 187.5 239.878906 C 158.597656 239.878906 135.125 216.40625 135.125 187.503906 C 135.125 158.589844 158.589844 135.125 187.5 135.125 Z M 187.5 135.125 "/><path style=" stroke:none;fill-rule:evenodd;fill:#3949ab;fill-opacity:1;" d="M 325.804688 106.730469 C 329.664062 110.34375 329.589844 115.792969 329.589844 120.078125 C 329.589844 148.476562 329.351562 229.238281 329.65625 257.632812 C 329.6875 260.597656 328.707031 263.714844 327.242188 266.066406 L 184.453125 187.503906 Z M 325.804688 106.730469 "/></g></svg>