<svg xmlns="http://www.w3.org/2000/svg" xmlns:xlink="http://www.w3.org/1999/xlink" width="500" zoomAndPan="magnify" viewBox="0 0 375 374.999991" height="500" preserveAspectRatio="xMidYMid meet" version="1.0"><defs><clipPath id="98262e0cf4"><path d="M 78.71875 65.957031 L 296.21875 65.957031 L 296.21875 308.957031 L 78.71875 308.957031 Z M 78.71875 65.957031 " clip-rule="nonzero"/></clipPath></defs><g clip-path="url(#98262e0cf4)"><path fill="#0277bd" d="M 296.1875 65.957031 L 78.75 65.957031 L 97.9375 283.378906 L 187.46875 308.957031 L 277 283.378906 Z M 296.1875 65.957031 " fill-opacity="1" fill-rule="nonzero"/></g><path fill="#039be5" d="M 187.46875 85.140625 L 187.46875 289.132812 L 259.09375 268.671875 L 275.082031 85.140625 Z M 187.46875 85.140625 " fill-opacity="1" fill-rule="nonzero"/><path fill="#ffffff" d="M 245.664062 117.113281 L 187.46875 117.113281 L 187.46875 142.695312 L 218.804688 142.695312 L 216.886719 168.273438 L 187.46875 168.273438 L 187.46875 193.851562 L 215.609375 193.851562 L 213.6875 222.628906 L 187.46875 231.582031 L 187.46875 258.4375 L 237.992188 241.8125 L 242.46875 168.273438 Z M 245.664062 117.113281 " fill-opacity="1" fill-rule="nonzero"/><path fill="#eeeeee" d="M 187.46875 117.113281 L 187.46875 142.695312 L 130.550781 142.695312 L 128.632812 117.113281 Z M 158.050781 168.273438 L 159.332031 193.851562 L 187.46875 193.851562 L 187.46875 168.273438 Z M 160.609375 206.640625 L 135.027344 206.640625 L 136.949219 241.8125 L 187.46875 258.4375 L 187.46875 231.582031 L 161.25 222.628906 Z M 160.609375 206.640625 " fill-opacity="1" fill-rule="nonzero"/></svg>