<svg xmlns="http://www.w3.org/2000/svg" xmlns:xlink="http://www.w3.org/1999/xlink" width="500" zoomAndPan="magnify" viewBox="0 0 375 374.999991" height="500" preserveAspectRatio="xMidYMid meet" version="1.0"><defs><clipPath id="a9ff1dd0d4"><path d="M 75 75 L 300 75 L 300 300 L 75 300 Z M 75 75 " clip-rule="nonzero"/></clipPath></defs><g clip-path="url(#a9ff1dd0d4)"><path fill="#f03c2e" d="M 295.753906 177.480469 L 197.519531 79.246094 C 196.847656 78.574219 196.117188 77.972656 195.324219 77.445312 C 194.535156 76.914062 193.699219 76.46875 192.820312 76.105469 C 191.941406 75.742188 191.035156 75.464844 190.101562 75.28125 C 189.167969 75.09375 188.226562 75.003906 187.273438 75.003906 C 186.324219 75.003906 185.382812 75.09375 184.449219 75.28125 C 183.515625 75.464844 182.609375 75.742188 181.730469 76.105469 C 180.851562 76.46875 180.015625 76.914062 179.226562 77.445312 C 178.433594 77.972656 177.703125 78.574219 177.03125 79.246094 L 156.640625 99.636719 L 182.515625 125.511719 C 188.535156 123.402344 195.425781 124.84375 200.21875 129.640625 C 201.359375 130.785156 202.324219 132.0625 203.105469 133.476562 C 203.886719 134.890625 204.457031 136.382812 204.816406 137.957031 C 205.179688 139.535156 205.316406 141.128906 205.230469 142.742188 C 205.140625 144.355469 204.832031 145.921875 204.304688 147.449219 L 229.246094 172.390625 C 235.277344 170.308594 242.238281 171.652344 247.054688 176.480469 C 247.453125 176.882812 247.832031 177.300781 248.191406 177.734375 C 248.550781 178.171875 248.886719 178.625 249.199219 179.09375 C 249.515625 179.566406 249.804688 180.050781 250.070312 180.546875 C 250.339844 181.046875 250.578125 181.554688 250.796875 182.078125 C 251.011719 182.597656 251.203125 183.128906 251.367188 183.671875 C 251.53125 184.210938 251.667969 184.757812 251.777344 185.3125 C 251.886719 185.867188 251.972656 186.425781 252.027344 186.988281 C 252.082031 187.550781 252.109375 188.113281 252.109375 188.679688 C 252.109375 189.242188 252.082031 189.808594 252.027344 190.371094 C 251.972656 190.929688 251.890625 191.488281 251.777344 192.042969 C 251.667969 192.597656 251.53125 193.144531 251.367188 193.6875 C 251.203125 194.226562 251.011719 194.757812 250.796875 195.28125 C 250.582031 195.800781 250.339844 196.3125 250.074219 196.808594 C 249.808594 197.308594 249.515625 197.792969 249.203125 198.261719 C 248.890625 198.730469 248.550781 199.183594 248.195312 199.621094 C 247.835938 200.058594 247.457031 200.476562 247.058594 200.875 C 246.65625 201.273438 246.238281 201.652344 245.800781 202.011719 C 245.367188 202.371094 244.914062 202.707031 244.441406 203.019531 C 243.972656 203.335938 243.488281 203.625 242.992188 203.890625 C 242.492188 204.15625 241.980469 204.398438 241.460938 204.613281 C 240.9375 204.832031 240.40625 205.019531 239.867188 205.183594 C 239.324219 205.347656 238.777344 205.484375 238.222656 205.59375 C 237.667969 205.703125 237.113281 205.789062 236.550781 205.84375 C 235.988281 205.898438 235.421875 205.925781 234.859375 205.925781 C 234.292969 205.925781 233.730469 205.898438 233.167969 205.839844 C 232.605469 205.785156 232.046875 205.703125 231.492188 205.59375 C 230.9375 205.480469 230.390625 205.34375 229.851562 205.179688 C 229.308594 205.015625 228.78125 204.824219 228.257812 204.609375 C 227.734375 204.390625 227.226562 204.152344 226.726562 203.882812 C 226.230469 203.617188 225.746094 203.328125 225.277344 203.011719 C 224.804688 202.699219 224.351562 202.363281 223.917969 202.003906 C 223.480469 201.644531 223.0625 201.265625 222.664062 200.867188 C 217.601562 195.804688 216.347656 188.351562 218.910156 182.113281 L 195.648438 158.855469 L 195.648438 220.0625 C 197.347656 220.902344 198.871094 221.988281 200.21875 223.324219 C 200.617188 223.722656 200.996094 224.140625 201.355469 224.578125 C 201.714844 225.015625 202.050781 225.46875 202.363281 225.9375 C 202.675781 226.40625 202.96875 226.890625 203.234375 227.386719 C 203.5 227.886719 203.742188 228.394531 203.957031 228.917969 C 204.171875 229.441406 204.363281 229.972656 204.527344 230.511719 C 204.691406 231.050781 204.828125 231.597656 204.9375 232.152344 C 205.046875 232.707031 205.132812 233.265625 205.1875 233.828125 C 205.242188 234.386719 205.269531 234.953125 205.269531 235.515625 C 205.269531 236.082031 205.242188 236.644531 205.1875 237.207031 C 205.132812 237.769531 205.046875 238.328125 204.9375 238.878906 C 204.828125 239.433594 204.691406 239.980469 204.527344 240.523438 C 204.363281 241.0625 204.171875 241.59375 203.957031 242.113281 C 203.742188 242.636719 203.5 243.144531 203.234375 243.644531 C 202.96875 244.140625 202.675781 244.625 202.363281 245.09375 C 202.050781 245.566406 201.714844 246.019531 201.355469 246.453125 C 200.996094 246.890625 200.617188 247.308594 200.21875 247.707031 C 199.820312 248.109375 199.402344 248.488281 198.964844 248.84375 C 198.527344 249.203125 198.078125 249.539062 197.605469 249.851562 C 197.136719 250.167969 196.652344 250.457031 196.15625 250.722656 C 195.65625 250.988281 195.148438 251.230469 194.625 251.445312 C 194.105469 251.664062 193.574219 251.851562 193.03125 252.015625 C 192.492188 252.179688 191.945312 252.316406 191.390625 252.425781 C 190.835938 252.539062 190.28125 252.621094 189.71875 252.675781 C 189.15625 252.730469 188.59375 252.757812 188.027344 252.757812 C 187.460938 252.757812 186.898438 252.730469 186.335938 252.675781 C 185.773438 252.621094 185.21875 252.539062 184.664062 252.425781 C 184.109375 252.316406 183.5625 252.179688 183.023438 252.015625 C 182.480469 251.851562 181.949219 251.664062 181.429688 251.445312 C 180.90625 251.230469 180.398438 250.988281 179.898438 250.722656 C 179.402344 250.457031 178.917969 250.167969 178.449219 249.851562 C 177.976562 249.539062 177.527344 249.203125 177.089844 248.84375 C 176.652344 248.488281 176.234375 248.109375 175.835938 247.707031 C 175.433594 247.308594 175.054688 246.890625 174.699219 246.457031 C 174.339844 246.019531 174.003906 245.566406 173.6875 245.097656 C 173.375 244.628906 173.082031 244.144531 172.816406 243.644531 C 172.550781 243.148438 172.308594 242.636719 172.09375 242.117188 C 171.875 241.59375 171.6875 241.0625 171.523438 240.523438 C 171.359375 239.980469 171.21875 239.433594 171.109375 238.882812 C 171 238.328125 170.917969 237.769531 170.863281 237.207031 C 170.804688 236.644531 170.777344 236.082031 170.777344 235.515625 C 170.777344 234.953125 170.804688 234.386719 170.863281 233.824219 C 170.917969 233.265625 171 232.707031 171.109375 232.152344 C 171.21875 231.597656 171.359375 231.050781 171.523438 230.511719 C 171.6875 229.96875 171.875 229.4375 172.09375 228.917969 C 172.308594 228.394531 172.550781 227.886719 172.816406 227.386719 C 173.082031 226.890625 173.375 226.40625 173.6875 225.9375 C 174.003906 225.464844 174.339844 225.011719 174.699219 224.578125 C 175.054688 224.140625 175.433594 223.722656 175.835938 223.324219 C 177.5 221.664062 179.351562 220.40625 181.480469 219.5625 L 181.480469 157.785156 C 179.429688 156.941406 177.5 155.699219 175.835938 154.023438 C 175.234375 153.421875 174.679688 152.78125 174.171875 152.097656 C 173.664062 151.414062 173.210938 150.695312 172.8125 149.945312 C 172.410156 149.195312 172.066406 148.421875 171.78125 147.617188 C 171.496094 146.816406 171.269531 146 171.105469 145.164062 C 170.941406 144.328125 170.839844 143.488281 170.800781 142.636719 C 170.761719 141.789062 170.785156 140.941406 170.871094 140.09375 C 170.957031 139.246094 171.105469 138.410156 171.3125 137.585938 C 171.523438 136.761719 171.792969 135.957031 172.121094 135.171875 L 146.597656 109.664062 L 79.238281 176.953125 C 78.566406 177.625 77.964844 178.359375 77.4375 179.148438 C 76.90625 179.941406 76.460938 180.773438 76.09375 181.652344 C 75.730469 182.535156 75.457031 183.441406 75.269531 184.375 C 75.085938 185.308594 74.992188 186.25 74.992188 187.199219 C 74.992188 188.152344 75.085938 189.09375 75.269531 190.027344 C 75.457031 190.960938 75.730469 191.867188 76.09375 192.746094 C 76.460938 193.628906 76.90625 194.460938 77.4375 195.253906 C 77.964844 196.042969 78.566406 196.777344 79.238281 197.449219 L 177.480469 295.675781 C 178.152344 296.347656 178.882812 296.949219 179.675781 297.476562 C 180.464844 298.007812 181.300781 298.453125 182.179688 298.816406 C 183.058594 299.179688 183.964844 299.457031 184.898438 299.640625 C 185.832031 299.828125 186.773438 299.921875 187.726562 299.921875 C 188.675781 299.921875 189.617188 299.828125 190.550781 299.640625 C 191.484375 299.457031 192.390625 299.179688 193.269531 298.816406 C 194.148438 298.453125 194.984375 298.007812 195.773438 297.476562 C 196.566406 296.949219 197.296875 296.347656 197.96875 295.675781 L 295.753906 198.046875 C 296.425781 197.375 297.027344 196.640625 297.558594 195.851562 C 298.085938 195.058594 298.53125 194.226562 298.898438 193.34375 C 299.261719 192.464844 299.535156 191.558594 299.722656 190.625 C 299.910156 189.691406 300 188.75 300 187.796875 C 300 186.847656 299.910156 185.90625 299.722656 184.972656 C 299.535156 184.039062 299.261719 183.132812 298.898438 182.25 C 298.53125 181.371094 298.085938 180.539062 297.558594 179.746094 C 297.027344 178.957031 296.425781 178.222656 295.753906 177.550781 " fill-opacity="1" fill-rule="nonzero"/></g></svg>