<svg xmlns="http://www.w3.org/2000/svg" xmlns:xlink="http://www.w3.org/1999/xlink" width="500" zoomAndPan="magnify" viewBox="0 0 375 374.999991" height="500" preserveAspectRatio="xMidYMid meet" version="1.0"><path fill="#000000" d="M 171.261719 71.25 C 115.605469 77.417969 70.25 122.328125 63.535156 177.898438 C 63.316406 179.644531 63.136719 181.390625 62.996094 183.144531 C 62.851562 184.898438 62.75 186.652344 62.679688 188.40625 C 62.613281 190.164062 62.585938 191.921875 62.59375 193.679688 C 62.601562 195.4375 62.648438 197.195312 62.730469 198.949219 C 62.816406 200.707031 62.9375 202.460938 63.09375 204.210938 C 63.253906 205.960938 63.449219 207.707031 63.683594 209.449219 C 63.917969 211.195312 64.1875 212.929688 64.496094 214.660156 C 64.804688 216.390625 65.148438 218.113281 65.53125 219.832031 C 65.914062 221.546875 66.332031 223.253906 66.785156 224.953125 C 67.242188 226.652344 67.730469 228.339844 68.257812 230.015625 C 68.785156 231.691406 69.351562 233.355469 69.949219 235.011719 C 70.546875 236.664062 71.179688 238.300781 71.851562 239.929688 C 72.519531 241.554688 73.222656 243.164062 73.960938 244.761719 C 74.699219 246.355469 75.46875 247.933594 76.277344 249.496094 C 77.082031 251.058594 77.921875 252.605469 78.792969 254.128906 C 79.664062 255.65625 80.570312 257.164062 81.503906 258.652344 C 82.441406 260.140625 83.410156 261.605469 84.410156 263.054688 C 85.410156 264.5 86.4375 265.925781 87.5 267.328125 C 88.558594 268.726562 89.648438 270.105469 90.769531 271.460938 C 91.886719 272.816406 93.035156 274.148438 94.210938 275.457031 C 95.390625 276.761719 96.59375 278.042969 97.824219 279.296875 C 99.054688 280.550781 100.3125 281.78125 101.597656 282.980469 C 102.882812 284.179688 104.191406 285.355469 105.523438 286.5 C 106.859375 287.644531 108.21875 288.757812 109.597656 289.84375 C 110.980469 290.933594 112.386719 291.988281 113.8125 293.015625 C 115.242188 294.039062 116.6875 295.035156 118.160156 296 C 119.628906 296.964844 121.117188 297.898438 122.628906 298.796875 C 124.140625 299.695312 125.667969 300.566406 127.214844 301.398438 C 128.761719 302.234375 130.324219 303.035156 131.90625 303.804688 C 133.488281 304.570312 135.085938 305.304688 136.699219 306.003906 C 138.3125 306.703125 139.9375 307.367188 141.582031 307.996094 C 143.222656 308.628906 144.875 309.222656 146.542969 309.78125 C 152.6875 310.761719 154.648438 306.957031 154.648438 303.644531 L 154.648438 282.898438 C 120.652344 290.285156 113.414062 266.460938 113.414062 266.460938 C 107.785156 252.21875 99.789062 248.414062 99.789062 248.414062 C 88.617188 240.804688 100.660156 241.054688 100.660156 241.054688 C 112.925781 241.925781 119.433594 253.695312 119.433594 253.695312 C 130.113281 272.351562 148.148438 266.824219 155.144531 263.878906 C 156.246094 255.902344 159.488281 250.5 162.878906 247.433594 C 135.585938 244.367188 107.027344 233.808594 107.027344 187.058594 C 107.027344 173.433594 111.695312 162.511719 119.667969 153.796875 C 118.445312 150.730469 114.144531 137.96875 120.894531 121.398438 C 120.894531 121.398438 131.207031 118.078125 154.648438 133.917969 C 159.652344 132.570312 164.71875 131.558594 169.855469 130.878906 C 174.992188 130.199219 180.148438 129.859375 185.328125 129.859375 C 190.507812 129.859375 195.664062 130.199219 200.800781 130.878906 C 205.9375 131.558594 211.003906 132.570312 216.007812 133.917969 C 239.464844 118.078125 249.761719 121.398438 249.761719 121.398438 C 256.503906 137.96875 252.210938 150.730469 250.984375 153.796875 C 258.960938 162.484375 263.628906 173.433594 263.628906 187.058594 C 263.628906 233.929688 234.902344 244.242188 207.542969 247.3125 C 211.957031 251.117188 216.007812 258.605469 216.007812 270.011719 L 216.007812 303.644531 C 216.007812 306.957031 217.96875 310.882812 224.234375 309.78125 C 226.011719 309.183594 227.777344 308.546875 229.527344 307.871094 C 231.277344 307.195312 233.011719 306.476562 234.726562 305.71875 C 236.445312 304.964844 238.144531 304.167969 239.824219 303.335938 C 241.503906 302.5 243.164062 301.628906 244.804688 300.71875 C 246.445312 299.808594 248.066406 298.859375 249.664062 297.875 C 251.261719 296.890625 252.835938 295.871094 254.386719 294.8125 C 255.933594 293.757812 257.460938 292.664062 258.960938 291.539062 C 260.460938 290.414062 261.933594 289.25 263.382812 288.058594 C 264.828125 286.863281 266.25 285.636719 267.640625 284.378906 C 269.03125 283.117188 270.394531 281.828125 271.726562 280.507812 C 273.058594 279.1875 274.359375 277.835938 275.628906 276.453125 C 276.898438 275.070312 278.136719 273.664062 279.339844 272.226562 C 280.546875 270.785156 281.71875 269.324219 282.855469 267.832031 C 283.996094 266.339844 285.097656 264.824219 286.167969 263.28125 C 287.234375 261.738281 288.269531 260.171875 289.265625 258.582031 C 290.261719 256.992188 291.222656 255.382812 292.148438 253.75 C 293.070312 252.117188 293.957031 250.460938 294.804688 248.789062 C 295.652344 247.113281 296.460938 245.421875 297.230469 243.710938 C 298 242 298.730469 240.273438 299.421875 238.527344 C 300.109375 236.78125 300.761719 235.023438 301.371094 233.25 C 301.980469 231.476562 302.550781 229.6875 303.078125 227.886719 C 303.605469 226.085938 304.09375 224.273438 304.539062 222.453125 C 304.984375 220.628906 305.386719 218.796875 305.75 216.957031 C 306.109375 215.117188 306.429688 213.265625 306.707031 211.410156 C 306.984375 209.554688 307.214844 207.695312 307.40625 205.828125 C 307.597656 203.960938 307.746094 202.089844 307.855469 200.21875 C 307.960938 198.34375 308.023438 196.46875 308.042969 194.59375 C 308.0625 192.71875 308.039062 190.84375 307.972656 188.96875 C 307.90625 187.09375 307.796875 185.21875 307.644531 183.347656 C 307.492188 181.480469 307.296875 179.613281 307.058594 177.753906 C 306.824219 175.890625 306.542969 174.035156 306.21875 172.1875 C 305.898438 170.339844 305.535156 168.5 305.125 166.667969 C 304.71875 164.835938 304.269531 163.015625 303.78125 161.203125 C 303.292969 159.394531 302.757812 157.59375 302.1875 155.808594 C 301.613281 154.019531 301 152.246094 300.347656 150.488281 C 299.691406 148.730469 299 146.988281 298.265625 145.261719 C 297.53125 143.535156 296.757812 141.824219 295.945312 140.132812 C 295.136719 138.441406 294.285156 136.769531 293.394531 135.117188 C 292.507812 133.464844 291.582031 131.832031 290.617188 130.222656 C 289.65625 128.613281 288.65625 127.027344 287.617188 125.460938 C 286.582031 123.898438 285.511719 122.359375 284.402344 120.84375 C 283.296875 119.328125 282.15625 117.839844 280.980469 116.375 C 279.808594 114.914062 278.597656 113.476562 277.359375 112.070312 C 276.117188 110.664062 274.84375 109.285156 273.542969 107.933594 C 272.238281 106.585938 270.902344 105.265625 269.539062 103.980469 C 268.175781 102.691406 266.78125 101.433594 265.359375 100.210938 C 263.9375 98.988281 262.488281 97.796875 261.011719 96.636719 C 259.535156 95.480469 258.035156 94.355469 256.507812 93.265625 C 254.980469 92.179688 253.425781 91.125 251.851562 90.105469 C 250.273438 89.089844 248.675781 88.109375 247.054688 87.164062 C 245.433594 86.21875 243.792969 85.3125 242.128906 84.441406 C 240.464844 83.570312 238.785156 82.742188 237.085938 81.949219 C 235.382812 81.15625 233.664062 80.402344 231.929688 79.691406 C 230.195312 78.976562 228.445312 78.300781 226.679688 77.667969 C 224.914062 77.035156 223.132812 76.441406 221.339844 75.890625 C 219.546875 75.339844 217.742188 74.828125 215.925781 74.359375 C 214.109375 73.890625 212.28125 73.460938 210.445312 73.078125 C 208.609375 72.691406 206.765625 72.347656 204.914062 72.046875 C 203.0625 71.746094 201.203125 71.488281 199.339844 71.273438 C 197.476562 71.054688 195.609375 70.882812 193.734375 70.753906 C 191.863281 70.621094 189.992188 70.535156 188.113281 70.492188 C 186.238281 70.445312 184.363281 70.445312 182.488281 70.484375 C 180.613281 70.527344 178.738281 70.613281 176.867188 70.738281 C 174.992188 70.867188 173.125 71.035156 171.261719 71.25 Z M 171.261719 71.25 " fill-opacity="1" fill-rule="nonzero"/></svg>