<svg xmlns="http://www.w3.org/2000/svg" xmlns:xlink="http://www.w3.org/1999/xlink" width="500" zoomAndPan="magnify" viewBox="0 0 375 374.999991" height="500" preserveAspectRatio="xMidYMid meet" version="1.0"><defs><clipPath id="02bdab6e10"><path d="M 75.0625 60 L 300 60 L 300 316 L 75.0625 316 Z M 75.0625 60 " clip-rule="nonzero"/></clipPath></defs><g clip-path="url(#02bdab6e10)"><path fill="#e44d26" d="M 95.703125 289.566406 L 75.265625 60.210938 L 299.859375 60.210938 L 279.398438 289.523438 L 187.425781 315.039062 Z M 95.703125 289.566406 " fill-opacity="1" fill-rule="nonzero"/></g><path fill="#f16529" d="M 187.5625 295.542969 L 261.886719 274.933594 L 279.367188 78.960938 L 187.5625 78.960938 Z M 187.5625 295.542969 " fill-opacity="1" fill-rule="nonzero"/><path fill="#ebebeb" d="M 187.5625 164.03125 L 150.351562 164.03125 L 147.785156 135.226562 L 187.5625 135.226562 L 187.5625 107.097656 L 117.058594 107.097656 L 117.726562 114.636719 L 124.636719 192.160156 L 187.5625 192.160156 Z M 187.5625 237.082031 L 187.433594 237.113281 L 156.125 228.652344 L 154.121094 206.214844 L 125.898438 206.214844 L 129.835938 250.386719 L 187.433594 266.375 L 187.5625 266.34375 Z M 187.5625 237.082031 " fill-opacity="1" fill-rule="nonzero"/><path fill="#ffffff" d="M 187.464844 164.03125 L 187.464844 192.160156 L 222.085938 192.160156 L 218.816406 228.640625 L 187.457031 237.101562 L 187.457031 266.367188 L 245.097656 250.386719 L 245.519531 245.628906 L 252.132812 171.570312 L 252.824219 164.019531 L 245.246094 164.019531 Z M 187.464844 107.097656 L 187.464844 135.226562 L 255.378906 135.226562 L 255.941406 128.898438 L 257.226562 114.636719 L 257.894531 107.089844 Z M 187.464844 107.097656 " fill-opacity="1" fill-rule="nonzero"/></svg>