<svg xmlns="http://www.w3.org/2000/svg" xmlns:xlink="http://www.w3.org/1999/xlink" width="500" zoomAndPan="magnify" viewBox="0 0 375 374.999991" height="500" preserveAspectRatio="xMidYMid meet" version="1.0"><defs><clipPath id="9b534a76e0"><path d="M 75 74.925781 L 299.925781 74.925781 L 299.925781 299.925781 L 75 299.925781 Z M 75 74.925781 " clip-rule="nonzero"/></clipPath><clipPath id="58ccb468c4"><path d="M 75 74.925781 L 188 74.925781 L 188 299.925781 L 75 299.925781 Z M 75 74.925781 " clip-rule="nonzero"/></clipPath></defs><g clip-path="url(#9b534a76e0)"><path fill="#ffc44d" d="M 83.296875 74.402344 C 81.046875 74.402344 78.902344 75.367188 77.414062 77.054688 C 75.921875 78.742188 75.230469 80.988281 75.507812 83.222656 L 96.4375 250.664062 C 96.765625 253.269531 98.367188 255.539062 100.714844 256.710938 L 184.4375 298.570312 C 186.648438 299.675781 189.25 299.675781 191.457031 298.570312 L 275.179688 256.710938 C 277.527344 255.539062 279.132812 253.269531 279.457031 250.664062 L 300.386719 83.222656 C 300.667969 80.988281 299.972656 78.742188 298.484375 77.054688 C 296.992188 75.367188 294.847656 74.402344 292.597656 74.402344 Z M 83.296875 74.402344 " fill-opacity="1" fill-rule="nonzero"/></g><g clip-path="url(#58ccb468c4)"><path fill="#e5b045" d="M 187.949219 74.402344 L 187.949219 299.402344 C 186.746094 299.402344 185.542969 299.125 184.4375 298.570312 L 100.714844 256.710938 C 98.367188 255.539062 96.765625 253.269531 96.4375 250.664062 L 75.507812 83.222656 C 75.230469 80.988281 75.921875 78.742188 77.414062 77.054688 C 78.902344 75.367188 81.046875 74.402344 83.296875 74.402344 Z M 187.949219 74.402344 " fill-opacity="1" fill-rule="evenodd"/></g><path fill="#cfd8dc" d="M 172.25 105.796875 C 176.585938 105.796875 180.097656 109.308594 180.097656 113.644531 L 180.097656 249.691406 C 180.097656 252.488281 178.609375 255.074219 176.191406 256.480469 C 173.769531 257.882812 170.785156 257.894531 168.355469 256.507812 L 131.730469 235.574219 C 127.964844 233.425781 126.65625 228.628906 128.808594 224.867188 C 130.960938 221.105469 135.753906 219.796875 139.515625 221.945312 L 164.402344 236.167969 L 164.402344 113.644531 C 164.402344 109.308594 167.917969 105.796875 172.25 105.796875 Z M 172.25 105.796875 " fill-opacity="1" fill-rule="evenodd"/><path fill="#eceff1" d="M 195.796875 113.644531 C 195.796875 109.308594 199.3125 105.796875 203.648438 105.796875 L 255.972656 105.796875 C 260.308594 105.796875 263.820312 109.308594 263.820312 113.644531 C 263.820312 117.980469 260.308594 121.492188 255.972656 121.492188 L 211.496094 121.492188 L 211.496094 171.882812 L 249.039062 163.542969 C 251.484375 162.996094 254.042969 163.65625 255.921875 165.308594 C 257.804688 166.964844 258.785156 169.417969 258.554688 171.914062 L 253.324219 229.472656 C 253.078125 232.179688 251.449219 234.566406 249.015625 235.78125 L 207.15625 256.710938 C 203.28125 258.652344 198.566406 257.078125 196.625 253.203125 C 194.6875 249.324219 196.261719 244.609375 200.136719 242.671875 L 238.085938 223.695312 L 241.949219 181.195312 L 205.351562 189.328125 C 203.027344 189.847656 200.59375 189.28125 198.734375 187.789062 C 196.878906 186.300781 195.796875 184.050781 195.796875 181.667969 Z M 195.796875 113.644531 " fill-opacity="1" fill-rule="evenodd"/></svg>