<svg xmlns="http://www.w3.org/2000/svg" xmlns:xlink="http://www.w3.org/1999/xlink" width="500" zoomAndPan="magnify" viewBox="0 0 375 374.999991" height="500" preserveAspectRatio="xMidYMid meet" version="1.0"><defs><clipPath id="8591a7ffee"><path d="M 71 70.9375 L 304 70.9375 L 304 304.1875 L 71 304.1875 Z M 71 70.9375 " clip-rule="nonzero"/></clipPath></defs><g clip-path="url(#8591a7ffee)"><path fill="#000000" d="M 284.585938 70.9375 L 90.53125 70.9375 C 79.800781 70.9375 71.171875 79.683594 71.171875 90.296875 L 71.171875 284.699219 C 71.171875 295.429688 79.917969 304.058594 90.53125 304.058594 L 284.46875 304.058594 C 295.195312 304.058594 303.828125 295.3125 303.828125 284.699219 L 303.828125 90.296875 C 303.941406 79.683594 295.3125 70.9375 284.585938 70.9375 Z M 140.09375 263.242188 L 105.691406 263.242188 L 105.691406 159.917969 L 140.09375 159.917969 Z M 122.835938 147.441406 C 111.988281 147.441406 103.242188 138.695312 103.242188 127.847656 C 103.242188 117.003906 111.988281 108.257812 122.835938 108.257812 C 133.679688 108.257812 142.425781 117.003906 142.425781 127.847656 C 142.425781 138.695312 133.679688 147.441406 122.835938 147.441406 Z M 269.539062 263.242188 L 235.023438 263.242188 L 234.207031 201.902344 C 234.207031 201.902344 235.023438 185.574219 217.179688 185.691406 C 199.335938 185.808594 196.886719 201.902344 196.886719 201.902344 L 196.886719 263.242188 L 162.132812 263.242188 L 162.132812 159.917969 L 195.488281 159.917969 L 195.488281 174.144531 C 195.488281 174.144531 196.886719 169.480469 204.582031 164 C 212.28125 158.519531 224.992188 157.351562 230.472656 157.585938 C 235.953125 157.820312 243.417969 156.886719 255.894531 165.515625 C 269.308594 174.730469 269.65625 198.871094 269.65625 198.871094 Z M 269.539062 263.242188 " fill-opacity="1" fill-rule="nonzero"/></g></svg>