<svg xmlns="http://www.w3.org/2000/svg" xmlns:xlink="http://www.w3.org/1999/xlink" width="500" zoomAndPan="magnify" viewBox="0 0 375 374.999991" height="500" preserveAspectRatio="xMidYMid meet" version="1.0"><defs><g/></defs><g fill="#000000" fill-opacity="1"><g transform="translate(-10.435501, 238.100012)"><g><path d="M 72.609375 -89.84375 L 79.3125 -74.953125 L 33.625 -53.875 L 79.640625 -31.796875 L 72.609375 -16.734375 L 11.375 -46.84375 L 11.375 -59.890625 Z M 72.609375 -89.84375 "/></g></g></g><g fill="#000000" fill-opacity="1"><g transform="translate(68.198862, 238.100012)"><g><path d="M 65.75 -22.421875 C 63.851562 -6.023438 52.867188 2.171875 32.796875 2.171875 C 22.304688 2.171875 12.9375 -0.171875 4.6875 -4.859375 L 4.6875 -34.125 L 21.75 -35.296875 L 21.75 -22.078125 C 21.75 -20.410156 21.972656 -19.1875 22.421875 -18.40625 C 22.867188 -17.625 24.039062 -16.867188 25.9375 -16.140625 C 27.832031 -15.421875 30.757812 -15.0625 34.71875 -15.0625 C 38.675781 -15.0625 41.546875 -16.257812 43.328125 -18.65625 C 45.117188 -21.050781 46.015625 -24.925781 46.015625 -30.28125 L 46.015625 -96.375 L 32.953125 -97.046875 L 32.953125 -111.265625 L 76.796875 -111.265625 L 76.796875 -97.703125 L 71.28125 -97.203125 C 68.039062 -96.867188 66.421875 -95.140625 66.421875 -92.015625 L 66.421875 -39.984375 C 66.421875 -32.066406 66.195312 -26.210938 65.75 -22.421875 Z M 65.75 -22.421875 "/></g></g></g><g fill="#030b6d" fill-opacity="1"><g transform="translate(136.634802, 238.100012)"><g><path d="M 33.625 -91.359375 L 56.046875 -23.921875 L 56.890625 -23.921875 L 80.3125 -96.375 L 70.109375 -97.046875 L 70.109375 -111.265625 L 108.578125 -111.265625 L 108.578125 -97.703125 L 103.0625 -97.203125 C 101.613281 -97.097656 100.550781 -96.679688 99.875 -95.953125 C 99.207031 -95.222656 98.539062 -93.96875 97.875 -92.1875 L 66.25 0 L 44.5 0 L 10.375 -96.546875 L 0.84375 -97.046875 L 0.84375 -111.265625 L 44 -111.265625 L 44 -97.703125 L 38.484375 -97.203125 C 35.023438 -96.984375 33.296875 -95.644531 33.296875 -93.1875 C 33.296875 -92.632812 33.40625 -92.023438 33.625 -91.359375 Z M 33.625 -91.359375 "/></g></g></g><g fill="#030b6d" fill-opacity="1"><g transform="translate(235.178874, 238.100012)"><g><path d="M 18.40625 18.40625 L 1.34375 12.046875 L 52.53125 -126.328125 L 69.9375 -120.125 Z M 18.40625 18.40625 "/></g></g></g><g fill="#030b6d" fill-opacity="1"><g transform="translate(295.911223, 238.100012)"><g><path d="M 11.71875 -74.953125 L 18.40625 -89.84375 L 79.640625 -59.890625 L 79.640625 -46.84375 L 18.40625 -16.734375 L 11.375 -31.796875 L 57.390625 -53.875 Z M 11.71875 -74.953125 "/></g></g></g><g fill="#545454" fill-opacity="1"><g transform="translate(107.160943, 194.249987)"><g><path d="M 1.324219 0 L 13.414062 0 L 13.59375 -2.9375 L 13.308594 -2.988281 C 12.398438 -1.039062 11.253906 -0.414062 8.761719 -0.414062 L 5.667969 -0.414062 C 4.914062 -0.414062 4.496094 -0.832031 4.496094 -1.585938 L 4.496094 -14.894531 C 4.496094 -17.027344 4.730469 -17.625 5.535156 -17.859375 L 5.535156 -18.195312 L 1.324219 -18.195312 L 1.324219 -17.859375 C 2.105469 -17.625 2.367188 -17.027344 2.367188 -14.894531 L 2.367188 -3.300781 C 2.367188 -1.167969 2.105469 -0.570312 1.324219 -0.339844 Z M 1.324219 0 "/></g></g></g><g fill="#545454" fill-opacity="1"><g transform="translate(141.632906, 194.249987)"><g><path d="M 10.605469 0.261719 C 14.972656 0.261719 19.808594 -2.597656 19.808594 -9.019531 C 19.808594 -15.390625 15 -18.40625 10.605469 -18.40625 C 5.09375 -18.40625 1.351562 -14.453125 1.351562 -9.125 C 1.351562 -2.675781 6.1875 0.261719 10.605469 0.261719 Z M 3.429688 -10.632812 C 3.273438 -14.867188 5.589844 -17.804688 9.539062 -17.804688 C 14.191406 -17.804688 17.597656 -12.738281 17.78125 -7.304688 C 17.910156 -3.40625 15.855469 -0.390625 11.699219 -0.390625 C 7.042969 -0.390625 3.613281 -5.40625 3.429688 -10.632812 Z M 3.429688 -10.632812 "/></g></g></g><g fill="#545454" fill-opacity="1"><g transform="translate(183.122774, 194.249987)"><g><path d="M 1.324219 0 L 5.535156 0 L 5.535156 -0.339844 C 4.730469 -0.570312 4.496094 -1.167969 4.496094 -3.300781 L 4.496094 -7.199219 L 6.34375 -7.199219 C 11.179688 -7.199219 13.699219 -9.617188 13.699219 -13.074219 C 13.699219 -15.597656 11.984375 -18.195312 6.601562 -18.195312 L 1.324219 -18.195312 L 1.324219 -17.859375 C 2.105469 -17.625 2.367188 -17.027344 2.367188 -14.894531 L 2.367188 -3.300781 C 2.367188 -1.167969 2.105469 -0.570312 1.324219 -0.339844 Z M 4.496094 -7.589844 L 4.496094 -17.753906 C 4.808594 -17.78125 5.226562 -17.804688 5.589844 -17.804688 C 9.773438 -17.804688 11.410156 -15.257812 11.410156 -12.476562 C 11.410156 -9.410156 9.617188 -7.589844 6.289062 -7.589844 Z M 4.496094 -7.589844 "/></g></g></g><g fill="#545454" fill-opacity="1"><g transform="translate(217.828669, 194.249987)"><g><path d="M 1.324219 0 L 14.140625 0 L 14.347656 -3.457031 L 14.0625 -3.507812 C 13.128906 -1.089844 11.542969 -0.390625 9.046875 -0.390625 L 5.667969 -0.390625 C 4.914062 -0.390625 4.496094 -0.804688 4.496094 -1.558594 L 4.496094 -9.539062 L 7.824219 -9.539062 C 10.789062 -9.539062 11.542969 -8.941406 11.855469 -7.773438 L 12.164062 -7.773438 L 12.164062 -11.699219 L 11.855469 -11.699219 C 11.542969 -10.527344 10.789062 -9.929688 7.824219 -9.929688 L 4.496094 -9.929688 L 4.496094 -17.804688 L 8.320312 -17.804688 C 10.96875 -17.804688 12.503906 -17.027344 13.414062 -14.738281 L 13.699219 -14.816406 L 13.414062 -18.195312 L 1.324219 -18.195312 L 1.324219 -17.859375 C 2.105469 -17.625 2.367188 -17.027344 2.367188 -14.894531 L 2.367188 -3.300781 C 2.367188 -1.167969 2.105469 -0.570312 1.324219 -0.339844 Z M 1.324219 0 "/></g></g></g><g fill="#545454" fill-opacity="1"><g transform="translate(253.496272, 194.249987)"><g><path d="M 7.410156 0.261719 C 10.476562 0.261719 13.492188 -1.714844 13.492188 -4.964844 C 13.492188 -7.902344 10.789062 -9.046875 7.902344 -10.191406 C 5.691406 -11.101562 3.015625 -12.085938 3.015625 -14.53125 C 3.015625 -16.742188 4.808594 -17.960938 6.914062 -17.960938 C 9.878906 -17.960938 11.699219 -16.351562 12.660156 -14.089844 L 12.917969 -14.167969 L 12.816406 -17.183594 C 11.800781 -17.730469 10.113281 -18.378906 7.746094 -18.378906 C 3.925781 -18.378906 1.402344 -16.453125 1.402344 -13.414062 C 1.402344 -10.65625 3.351562 -9.566406 6.421875 -8.34375 C 8.605469 -7.460938 11.800781 -6.265625 11.800781 -3.664062 C 11.800781 -1.558594 10.007812 -0.207031 7.929688 -0.207031 C 4.316406 -0.207031 2.339844 -2.523438 1.324219 -5.25 L 1.039062 -5.199219 L 1.167969 -1.585938 C 2.390625 -0.703125 4.679688 0.261719 7.410156 0.261719 Z M 7.410156 0.261719 "/></g></g></g></svg>