<svg xmlns="http://www.w3.org/2000/svg" xmlns:xlink="http://www.w3.org/1999/xlink" width="500" zoomAndPan="magnify" viewBox="0 0 375 374.999991" height="500" preserveAspectRatio="xMidYMid meet" version="1.0"><defs><clipPath id="d06edf376b"><path d="M 35 153.382812 L 340.195312 153.382812 L 340.195312 221.632812 L 35 221.632812 Z M 35 153.382812 " clip-rule="nonzero"/></clipPath><clipPath id="9464b41237"><path d="M 57 153.382812 L 260 153.382812 L 260 221.632812 L 57 221.632812 Z M 57 153.382812 " clip-rule="nonzero"/></clipPath><clipPath id="a3dac81754"><path d="M 231 153.382812 L 270 153.382812 L 270 220 L 231 220 Z M 231 153.382812 " clip-rule="nonzero"/></clipPath><clipPath id="b88bd99ef0"><path d="M 245 153.382812 L 321 153.382812 L 321 221.632812 L 245 221.632812 Z M 245 153.382812 " clip-rule="nonzero"/></clipPath></defs><g clip-path="url(#d06edf376b)"><path fill="#555588" d="M 44.859375 198.933594 C 44.859375 196.476562 44.019531 194.703125 42.335938 193.660156 C 40.683594 192.617188 38.261719 192.09375 35.074219 192.09375 L 35.074219 182.949219 C 36.65625 182.949219 38.054688 182.835938 39.28125 182.605469 C 40.527344 182.351562 41.574219 181.953125 42.414062 181.417969 C 43.253906 180.871094 43.878906 180.144531 44.289062 179.277344 C 44.71875 178.410156 44.910156 177.367188 44.859375 176.144531 L 44.859375 163.992188 C 44.859375 162.109375 45.101562 160.503906 45.585938 159.179688 C 46.070312 157.8125 46.953125 156.734375 48.1875 155.890625 C 49.460938 155.027344 51.179688 154.390625 53.347656 153.980469 C 55.511719 153.570312 58.261719 153.382812 61.601562 153.382812 L 61.601562 161.984375 C 60.664062 162.003906 59.734375 162.09375 58.8125 162.25 C 57.996094 162.40625 57.308594 162.683594 56.710938 163.089844 C 56.164062 163.472656 55.714844 164.007812 55.410156 164.695312 C 55.105469 165.382812 54.949219 166.277344 54.949219 167.371094 L 54.949219 178.796875 C 54.796875 183.574219 51.816406 186.390625 46.007812 187.28125 L 46.007812 187.738281 C 48.9375 188.171875 51.195312 189.105469 52.734375 190.492188 C 54.273438 191.878906 55.027344 193.789062 54.953125 196.183594 L 54.953125 207.609375 C 54.953125 208.703125 55.105469 209.59375 55.410156 210.285156 C 55.71875 210.972656 56.148438 211.507812 56.710938 211.886719 C 57.296875 212.296875 58 212.578125 58.8125 212.730469 C 59.652344 212.882812 60.582031 212.972656 61.605469 212.996094 L 61.605469 221.632812 C 58.265625 221.632812 55.515625 221.429688 53.347656 221.023438 C 51.179688 220.613281 49.460938 219.976562 48.1875 219.109375 C 46.9375 218.269531 46.070312 217.171875 45.589844 215.824219 C 45.105469 214.476562 44.863281 212.855469 44.863281 210.972656 L 44.863281 198.933594 M 330.246094 210.972656 C 330.246094 212.855469 330.003906 214.472656 329.519531 215.824219 C 329.035156 217.171875 328.15625 218.269531 326.882812 219.109375 C 325.632812 219.976562 323.925781 220.613281 321.761719 221.023438 C 319.597656 221.429688 316.847656 221.632812 313.488281 221.632812 L 313.488281 212.996094 C 314.507812 212.96875 315.425781 212.878906 316.242188 212.730469 C 317.058594 212.578125 317.742188 212.296875 318.304688 211.886719 C 318.894531 211.507812 319.339844 210.972656 319.644531 210.285156 C 319.976562 209.59375 320.140625 208.703125 320.140625 207.609375 L 320.140625 196.183594 C 320.0625 193.789062 320.804688 191.890625 322.359375 190.492188 C 323.914062 189.089844 326.140625 188.171875 329.046875 187.738281 L 329.046875 187.28125 C 323.261719 186.390625 320.308594 183.5625 320.140625 178.796875 L 320.140625 167.371094 C 320.140625 166.277344 319.976562 165.382812 319.644531 164.695312 C 319.359375 164.027344 318.914062 163.492188 318.308594 163.089844 C 317.761719 162.683594 317.058594 162.402344 316.242188 162.25 C 315.332031 162.089844 314.414062 162 313.492188 161.984375 L 313.492188 153.382812 C 316.828125 153.382812 319.578125 153.589844 321.746094 153.996094 C 323.914062 154.402344 325.621094 155.039062 326.867188 155.90625 C 328.140625 156.746094 329.019531 157.839844 329.503906 159.191406 C 329.988281 160.515625 330.230469 162.121094 330.230469 164.007812 L 330.230469 176.160156 C 330.203125 177.382812 330.394531 178.425781 330.804688 179.292969 C 331.210938 180.160156 331.835938 180.871094 332.675781 181.433594 C 333.515625 181.96875 334.550781 182.359375 335.773438 182.617188 C 337.023438 182.847656 338.433594 182.960938 340.015625 182.960938 L 340.015625 192.105469 C 336.832031 192.105469 334.398438 192.628906 332.714844 193.675781 C 331.058594 194.71875 330.230469 196.476562 330.230469 198.945312 L 330.230469 210.984375 " fill-opacity="1" fill-rule="nonzero"/></g><path fill="#000000" d="M 77.949219 213.339844 C 77.082031 213.339844 76.3125 213.28125 75.675781 213.15625 C 75.027344 213.054688 74.464844 212.914062 73.988281 212.722656 L 73.988281 208.636719 C 74.605469 208.800781 75.226562 208.917969 75.855469 208.996094 C 76.566406 209.101562 77.28125 209.152344 78 209.148438 C 78.644531 209.148438 79.273438 209.066406 79.890625 208.894531 C 80.539062 208.742188 81.121094 208.453125 81.628906 208.027344 C 82.160156 207.601562 82.585938 207.015625 82.90625 206.253906 C 83.230469 205.492188 83.394531 204.550781 83.394531 203.390625 L 83.394531 166.046875 L 88.171875 166.046875 L 88.171875 202.890625 C 88.171875 204.667969 87.917969 206.230469 87.40625 207.539062 C 86.914062 208.851562 86.214844 209.933594 85.3125 210.785156 C 84.425781 211.652344 83.351562 212.292969 82.09375 212.703125 C 80.863281 213.128906 79.152344 213.339844 77.636719 213.339844 M 111.917969 199.519531 L 111.714844 199.519531 C 111.152344 200.285156 110.589844 200.949219 110.027344 201.511719 C 109.480469 202.050781 108.867188 202.5 108.191406 202.867188 C 107.523438 203.226562 106.785156 203.488281 105.96875 203.660156 C 105.152344 203.828125 104.191406 203.914062 103.132812 203.914062 C 101.957031 203.914062 100.875 203.742188 99.886719 203.402344 C 98.914062 203.09375 98.054688 202.589844 97.308594 201.898438 C 96.589844 201.214844 96.027344 200.328125 95.621094 199.304688 C 95.210938 198.246094 95.007812 197.003906 95.007812 195.574219 C 95.007812 192.78125 95.984375 190.636719 97.945312 189.136719 C 99.917969 187.636719 102.917969 186.820312 106.9375 186.683594 L 111.636719 186.503906 L 111.636719 184.730469 C 111.636719 183.589844 111.507812 182.632812 111.253906 181.867188 C 111.015625 181.105469 110.660156 180.503906 110.183594 180.03125 C 109.722656 179.550781 109.144531 179.210938 108.445312 179.003906 C 107.761719 178.800781 106.980469 178.699219 106.09375 178.699219 C 104.738281 178.6875 103.417969 178.894531 102.132812 179.3125 C 100.921875 179.722656 99.757812 180.214844 98.632812 180.792969 L 96.996094 177.292969 C 98.257812 176.613281 99.660156 176.035156 101.210938 175.554688 C 102.804688 175.070312 104.429688 174.832031 106.09375 174.839844 C 107.828125 174.839844 109.328125 175.019531 110.589844 175.378906 C 111.867188 175.71875 112.914062 176.273438 113.730469 177.039062 C 114.550781 177.789062 115.1875 178.75 115.597656 179.925781 C 116.003906 181.097656 116.210938 182.523438 116.210938 184.191406 L 116.210938 203.398438 L 112.855469 203.398438 Z M 104.332031 200.144531 C 105.371094 200.144531 106.332031 199.980469 107.21875 199.660156 C 108.105469 199.335938 108.859375 198.851562 109.519531 198.203125 C 110.164062 197.539062 110.667969 196.710938 111.027344 195.726562 C 111.398438 194.722656 111.589844 193.546875 111.589844 192.199219 L 111.589844 189.671875 L 107.933594 189.851562 C 106.402344 189.917969 105.117188 190.089844 104.078125 190.359375 C 103.039062 190.632812 102.203125 191.015625 101.574219 191.511719 C 100.964844 191.972656 100.523438 192.5625 100.246094 193.273438 C 99.972656 193.957031 99.835938 194.730469 99.835938 195.597656 C 99.835938 197.164062 100.246094 198.328125 101.0625 199.046875 C 101.878906 199.777344 102.972656 200.144531 104.332031 200.144531 M 120.113281 175.355469 L 124.914062 175.355469 L 130 190.960938 L 130.664062 193.144531 L 131.429688 195.855469 L 132.117188 198.449219 L 132.550781 200.3125 L 132.730469 200.3125 L 133.164062 198.449219 L 133.851562 195.855469 L 134.617188 193.144531 L 135.28125 190.960938 L 140.367188 175.355469 L 145.167969 175.355469 L 135.589844 203.402344 L 129.683594 203.402344 Z M 164.171875 199.519531 L 163.964844 199.519531 C 163.402344 200.285156 162.84375 200.949219 162.28125 201.511719 C 161.730469 202.050781 161.117188 202.5 160.441406 202.867188 C 159.777344 203.226562 159.035156 203.488281 158.21875 203.660156 C 157.402344 203.828125 156.445312 203.914062 155.382812 203.914062 C 154.207031 203.914062 153.125 203.742188 152.136719 203.402344 C 151.164062 203.09375 150.304688 202.589844 149.558594 201.898438 C 148.84375 201.214844 148.28125 200.328125 147.871094 199.304688 C 147.460938 198.246094 147.257812 197.003906 147.257812 195.574219 C 147.257812 192.78125 148.234375 190.636719 150.195312 189.136719 C 152.171875 187.636719 155.167969 186.820312 159.1875 186.683594 L 163.886719 186.503906 L 163.886719 184.730469 C 163.886719 183.589844 163.761719 182.632812 163.503906 181.867188 C 163.265625 181.105469 162.910156 180.503906 162.433594 180.03125 C 161.972656 179.550781 161.394531 179.210938 160.695312 179.003906 C 160.011719 178.800781 159.230469 178.699219 158.34375 178.699219 C 156.992188 178.6875 155.671875 178.894531 154.382812 179.3125 C 153.175781 179.722656 152.007812 180.214844 150.882812 180.792969 L 149.246094 177.292969 C 150.507812 176.613281 151.914062 176.035156 153.464844 175.554688 C 155.054688 175.070312 156.679688 174.832031 158.34375 174.839844 C 160.082031 174.839844 161.578125 175.019531 162.839844 175.378906 C 164.117188 175.71875 165.164062 176.273438 165.980469 177.039062 C 166.800781 177.789062 167.4375 178.75 167.847656 179.925781 C 168.253906 181.097656 168.460938 182.523438 168.460938 184.191406 L 168.460938 203.398438 L 165.117188 203.398438 Z M 156.582031 200.15625 C 157.621094 200.15625 158.585938 199.992188 159.46875 199.671875 C 160.355469 199.347656 161.109375 198.863281 161.769531 198.214844 C 162.417969 197.550781 162.917969 196.726562 163.277344 195.738281 C 163.652344 194.734375 163.839844 193.558594 163.839844 192.210938 L 163.839844 189.683594 L 160.1875 189.863281 C 158.652344 189.929688 157.367188 190.101562 156.328125 190.375 C 155.289062 190.644531 154.453125 191.027344 153.824219 191.523438 C 153.214844 191.984375 152.773438 192.574219 152.496094 193.285156 C 152.222656 193.96875 152.085938 194.742188 152.085938 195.609375 C 152.085938 197.175781 152.496094 198.339844 153.3125 199.058594 C 154.132812 199.789062 155.222656 200.15625 156.582031 200.15625 M 197.121094 193.414062 C 197.121094 195.050781 196.824219 196.546875 196.226562 197.859375 C 195.648438 199.152344 194.8125 200.25 193.722656 201.152344 C 192.632812 202.054688 191.304688 202.746094 189.734375 203.222656 C 188.167969 203.683594 186.40625 203.910156 184.445312 203.910156 C 182.554688 203.910156 180.785156 203.757812 179.132812 203.453125 C 177.496094 203.160156 176.128906 202.726562 175.019531 202.148438 L 175.019531 197.601562 L 176.984375 198.421875 L 179.335938 199.109375 L 181.867188 199.621094 C 182.726562 199.742188 183.589844 199.800781 184.460938 199.800781 C 187.183594 199.800781 189.195312 199.289062 190.488281 198.269531 C 191.800781 197.246094 192.457031 195.78125 192.457031 193.875 C 192.457031 192.953125 192.328125 192.152344 192.074219 191.472656 C 191.835938 190.789062 191.398438 190.167969 190.769531 189.605469 C 190.15625 189.027344 189.332031 188.472656 188.292969 187.945312 C 187.253906 187.398438 185.941406 186.8125 184.359375 186.171875 C 182.855469 185.574219 181.523438 184.945312 180.398438 184.230469 C 179.308594 183.515625 178.371094 182.730469 177.640625 181.828125 C 176.914062 180.925781 176.378906 179.921875 176.03125 178.816406 C 175.6875 177.691406 175.519531 176.414062 175.519531 174.984375 C 175.519531 173.484375 175.792969 172.148438 176.339844 170.972656 C 176.886719 169.796875 177.648438 168.808594 178.636719 168.011719 C 179.625 167.191406 180.800781 166.570312 182.164062 166.144531 C 183.523438 165.71875 185.058594 165.507812 186.710938 165.507812 C 188.738281 165.507812 190.558594 165.703125 192.175781 166.09375 C 193.792969 166.46875 195.234375 166.953125 196.496094 167.550781 L 194.78125 171.535156 C 193.691406 171.042969 192.414062 170.617188 191 170.257812 C 189.578125 169.878906 188.132812 169.691406 186.660156 169.695312 C 184.582031 169.695312 182.972656 170.183594 181.832031 171.152344 C 180.691406 172.109375 180.117188 173.402344 180.117188 175.035156 C 180.117188 175.992188 180.246094 176.851562 180.5 177.5625 C 180.757812 178.261719 181.183594 178.902344 181.777344 179.480469 C 182.375 180.042969 183.144531 180.578125 184.128906 181.089844 C 185.316406 181.675781 186.523438 182.203125 187.757812 182.675781 C 189.308594 183.289062 190.660156 183.902344 191.820312 184.566406 C 192.992188 185.210938 193.972656 185.929688 194.757812 186.75 C 195.546875 187.570312 196.132812 188.515625 196.519531 189.585938 C 196.929688 190.65625 197.144531 191.972656 197.144531 193.4375 M 214.433594 203.882812 C 212.710938 203.882812 211.101562 203.621094 209.605469 203.09375 C 208.097656 202.550781 206.796875 201.699219 205.695312 200.539062 C 204.601562 199.363281 203.71875 197.875 203.101562 196.066406 C 202.46875 194.246094 202.15625 192.058594 202.15625 189.515625 C 202.15625 186.839844 202.480469 184.578125 203.113281 182.722656 C 203.757812 180.847656 204.644531 179.332031 205.769531 178.175781 C 206.910156 177 208.226562 176.148438 209.753906 175.625 C 211.285156 175.097656 212.898438 174.832031 214.632812 174.832031 C 215.945312 174.828125 217.238281 174.972656 218.515625 175.265625 C 219.792969 175.554688 220.859375 175.914062 221.710938 176.339844 L 220.347656 180.273438 C 219.921875 180.089844 219.488281 179.925781 219.042969 179.785156 C 218.558594 179.613281 218.066406 179.464844 217.5625 179.351562 C 217.066406 179.21875 216.5625 179.117188 216.054688 179.046875 C 215.5625 178.960938 215.09375 178.917969 214.648438 178.917969 C 211.972656 178.917969 210.027344 179.777344 208.800781 181.511719 C 207.574219 183.210938 206.960938 185.871094 206.960938 189.480469 C 206.960938 193.074219 207.574219 195.703125 208.800781 197.375 C 210.027344 199.011719 211.9375 199.851562 214.445312 199.851562 C 215.8125 199.851562 217.066406 199.695312 218.175781 199.390625 C 219.300781 199.066406 220.320312 198.707031 221.242188 198.265625 L 221.242188 202.40625 C 220.300781 202.90625 219.3125 203.28125 218.277344 203.527344 C 217.242188 203.785156 215.894531 203.910156 214.378906 203.910156 M 239.765625 174.84375 L 241.425781 174.917969 C 241.957031 174.941406 242.488281 175.003906 243.011719 175.097656 L 242.394531 179.390625 L 240.914062 179.183594 C 240.421875 179.117188 239.953125 179.082031 239.507812 179.082031 C 238.433594 179.082031 237.457031 179.304688 236.570312 179.746094 C 235.683594 180.171875 234.933594 180.792969 234.273438 181.613281 C 233.640625 182.410156 233.148438 183.382812 232.789062 184.523438 C 232.449219 185.644531 232.28125 186.898438 232.28125 188.277344 L 232.28125 203.398438 L 227.628906 203.398438 L 227.628906 175.355469 L 231.410156 175.355469 L 231.972656 180.488281 L 232.179688 180.488281 L 233.53125 178.371094 C 234.003906 177.710938 234.546875 177.117188 235.167969 176.59375 C 235.78125 176.066406 236.460938 175.648438 237.210938 175.34375 C 237.964844 175.019531 238.890625 174.855469 239.847656 174.855469 " fill-opacity="1" fill-rule="nonzero"/><g clip-path="url(#9464b41237)"><path stroke-linecap="butt" transform="matrix(1.365212, 0, 0, 1.365, 21.42409, 146.558237)" fill="none" stroke-linejoin="miter" d="M 41.403907 48.924257 C 40.768704 48.924257 40.205032 48.881332 39.738644 48.789756 C 39.263672 48.715352 38.851649 48.61233 38.502573 48.472105 L 38.502573 45.478744 C 38.954655 45.598937 39.409598 45.684788 39.870263 45.742023 C 40.391015 45.819289 40.914629 45.856492 41.441104 45.85363 C 41.913214 45.85363 42.37388 45.793534 42.825961 45.667618 C 43.300933 45.556011 43.727264 45.344243 44.099229 45.032316 C 44.488363 44.720388 44.800242 44.29113 45.034867 43.733094 C 45.272353 43.175058 45.392526 42.485383 45.392526 41.635452 L 45.392526 14.277392 L 48.891867 14.277392 L 48.891867 41.269152 C 48.891867 42.571235 48.705884 43.715924 48.331057 44.674601 C 47.970536 45.636139 47.458368 46.428836 46.797413 47.052691 C 46.147903 47.687994 45.361052 48.157316 44.439721 48.457797 C 43.538419 48.769724 42.28518 48.924257 41.175005 48.924257 M 66.285566 38.799486 L 66.13678 38.799486 C 65.724756 39.360383 65.312732 39.846876 64.900708 40.258964 C 64.50013 40.653881 64.050909 40.982979 63.555908 41.251981 C 63.06663 41.51526 62.525849 41.706995 61.927842 41.832911 C 61.329835 41.955965 60.625961 42.018923 59.850556 42.018923 C 58.989311 42.018923 58.196738 41.893007 57.472835 41.644037 C 56.760377 41.417961 56.130896 41.048799 55.584393 40.542274 C 55.057918 40.041473 54.645894 39.391862 54.348321 38.642091 C 54.047887 37.866564 53.899101 36.956537 53.899101 35.909147 C 53.899101 33.863016 54.61442 32.29193 56.050781 31.193029 C 57.495725 30.094128 59.693185 29.496028 62.637439 29.395868 L 66.079554 29.264229 L 66.079554 27.965007 C 66.079554 27.129384 65.985132 26.428262 65.799149 25.867365 C 65.624611 25.309329 65.364235 24.868624 65.015159 24.522356 C 64.677529 24.170364 64.25406 23.921394 63.741891 23.769723 C 63.241168 23.620913 62.668913 23.546508 62.019403 23.546508 C 61.02654 23.537923 60.059429 23.689595 59.118069 23.995799 C 58.231073 24.29628 57.378413 24.656857 56.554365 25.080391 L 55.35549 22.516289 C 56.279683 22.018349 57.306881 21.594814 58.442808 21.242822 C 59.610208 20.887969 60.800499 20.713404 62.019403 20.719127 C 63.28981 20.719127 64.38854 20.850767 65.312732 21.114045 C 66.248369 21.363015 67.015191 21.769379 67.613198 22.330277 C 68.214066 22.879727 68.680454 23.583711 68.980888 24.445089 C 69.278461 25.303606 69.430109 26.348134 69.430109 27.570089 L 69.430109 41.641175 L 66.972272 41.641175 Z M 60.728967 39.257361 C 61.490067 39.257361 62.193941 39.137169 62.843451 38.902508 C 63.49296 38.664985 64.045187 38.310131 64.528742 37.835085 C 65.000853 37.348593 65.369958 36.741908 65.633195 36.020754 C 65.905016 35.285291 66.045219 34.423913 66.045219 33.436619 L 66.045219 31.585085 L 63.367064 31.716724 C 62.245444 31.765373 61.304084 31.891289 60.542984 32.088748 C 59.781885 32.289069 59.169572 32.569517 58.708906 32.932956 C 58.262547 33.270639 57.939223 33.702759 57.736072 34.223593 C 57.535783 34.724394 57.435638 35.291015 57.435638 35.926317 C 57.435638 37.073867 57.736072 37.926661 58.334079 38.453217 C 58.932086 38.988359 59.733243 39.257361 60.728967 39.257361 M 72.288524 21.096875 L 75.805032 21.096875 L 79.530414 32.529453 L 80.016831 34.129156 L 80.577641 36.115191 L 81.081226 38.015374 L 81.398828 39.380415 L 81.530446 39.380415 L 81.848048 38.015374 L 82.351633 36.115191 L 82.912443 34.129156 L 83.39886 32.529453 L 87.124241 21.096875 L 90.64075 21.096875 L 83.624901 41.644037 L 79.298651 41.644037 Z M 104.560859 38.799486 L 104.409212 38.799486 C 103.997188 39.360383 103.588025 39.846876 103.176002 40.258964 C 102.772562 40.653881 102.323341 40.982979 101.82834 41.251981 C 101.341924 41.51526 100.798281 41.706995 100.200274 41.832911 C 99.602268 41.955965 98.901255 42.018923 98.122988 42.018923 C 97.261743 42.018923 96.46917 41.893007 95.745267 41.644037 C 95.032809 41.417961 94.403328 41.048799 93.856825 40.542274 C 93.333211 40.041473 92.921187 39.391862 92.620753 38.642091 C 92.320319 37.866564 92.171533 36.956537 92.171533 35.909147 C 92.171533 33.863016 92.886852 32.29193 94.323213 31.193029 C 95.771019 30.094128 97.965617 29.496028 100.909871 29.395868 L 104.351986 29.264229 L 104.351986 27.965007 C 104.351986 27.129384 104.260425 26.428262 104.071581 25.867365 C 103.897043 25.309329 103.636667 24.868624 103.287591 24.522356 C 102.949961 24.170364 102.526492 23.921394 102.014323 23.769723 C 101.5136 23.620913 100.941345 23.546508 100.291835 23.546508 C 99.301833 23.537923 98.334722 23.689595 97.390501 23.995799 C 96.506367 24.29628 95.650845 24.656857 94.826797 25.080391 L 93.627923 22.516289 C 94.552115 22.018349 95.582174 21.594814 96.718101 21.242822 C 97.88264 20.887969 99.072931 20.713404 100.291835 20.719127 C 101.565103 20.719127 102.660972 20.850767 103.585164 21.114045 C 104.520802 21.363015 105.287624 21.769379 105.88563 22.330277 C 106.486498 22.879727 106.952886 23.583711 107.25332 24.445089 C 107.550893 25.303606 107.702541 26.348134 107.702541 27.570089 L 107.702541 41.641175 L 105.253288 41.641175 Z M 99.001399 39.265946 C 99.762499 39.265946 100.469234 39.145754 101.115883 38.911093 C 101.765392 38.67357 102.317619 38.318716 102.801174 37.843671 C 103.276146 37.357178 103.64239 36.753355 103.905627 36.029339 C 104.18031 35.293876 104.317651 34.432498 104.317651 33.445204 L 104.317651 31.59367 L 101.642358 31.725309 C 100.517876 31.773959 99.576516 31.899874 98.815417 32.100195 C 98.054317 32.297654 97.442004 32.578102 96.981338 32.941541 C 96.534979 33.279224 96.211655 33.711344 96.008504 34.232178 C 95.808215 34.732979 95.70807 35.2996 95.70807 35.934902 C 95.70807 37.082453 96.008504 37.935246 96.606511 38.461803 C 97.207379 38.996944 98.005675 39.265946 99.001399 39.265946 M 128.695725 34.326615 C 128.695725 35.525676 128.478268 36.621715 128.040493 37.583254 C 127.617024 38.530484 127.004711 39.334628 126.206415 39.995685 C 125.408119 40.656743 124.435285 41.163268 123.285052 41.512398 C 122.13768 41.850081 120.847244 42.016061 119.410883 42.016061 C 118.026026 42.016061 116.729868 41.904454 115.519548 41.68124 C 114.320673 41.46661 113.319226 41.148959 112.506624 40.725424 L 112.506624 37.39438 L 113.945846 37.995342 L 115.668334 38.499005 L 117.522441 38.87389 C 118.151922 38.962604 118.784264 39.00553 119.422329 39.00553 C 121.416638 39.00553 122.890195 38.630644 123.837278 37.883735 C 124.798667 37.133964 125.279361 36.060818 125.279361 34.664298 C 125.279361 33.988931 125.184939 33.402278 124.998956 32.904339 C 124.824418 32.403537 124.503955 31.948524 124.04329 31.536436 C 123.594069 31.112901 122.99034 30.706536 122.229241 30.320204 C 121.468141 29.919563 120.506752 29.490305 119.347935 29.020982 C 118.246344 28.583139 117.270649 28.122402 116.446601 27.598707 C 115.648305 27.075011 114.961599 26.499805 114.42654 25.838748 C 113.894343 25.17769 113.502348 24.442227 113.247694 23.63236 C 112.995902 22.808184 112.872867 21.872401 112.872867 20.825011 C 112.872867 19.72611 113.073156 18.747401 113.473735 17.886023 C 113.874314 17.024645 114.432263 16.300629 115.156166 15.716838 C 115.880069 15.115876 116.741313 14.660862 117.739898 14.348935 C 118.735622 14.037007 119.860104 13.882474 121.070424 13.882474 C 122.555426 13.882474 123.888781 14.02556 125.073349 14.311732 C 126.257918 14.586458 127.313729 14.941311 128.237921 15.379154 L 126.981821 18.298111 C 126.183525 17.937534 125.247887 17.625606 124.212105 17.362328 C 123.170601 17.084741 122.111928 16.947378 121.033227 16.95024 C 119.511028 16.95024 118.332182 17.307955 117.49669 18.017662 C 116.661197 18.718784 116.240589 19.666014 116.240589 20.862213 C 116.240589 21.563335 116.335011 22.192914 116.520994 22.713747 C 116.709839 23.225996 117.021718 23.695318 117.456632 24.118853 C 117.894407 24.530941 118.458078 24.922997 119.17912 25.297882 C 120.048948 25.72714 120.933082 26.113473 121.837246 26.459741 C 122.973173 26.909032 123.963174 27.358322 124.812973 27.844815 C 125.671356 28.316999 126.389536 28.843556 126.964653 29.444517 C 127.542631 30.045479 127.971822 30.738015 128.255089 31.522127 C 128.555523 32.306239 128.712893 33.270639 128.712893 34.343785 M 141.376902 41.996029 C 140.115079 41.996029 138.936233 41.804294 137.840364 41.417961 C 136.735912 41.020182 135.783107 40.396326 134.976227 39.546395 C 134.175069 38.685017 133.528421 37.594701 133.076339 36.269724 C 132.612812 34.936161 132.38391 33.333597 132.38391 31.470616 C 132.38391 29.510337 132.621396 27.8534 133.084923 26.494082 C 133.557034 25.120455 134.206543 24.010107 135.030591 23.163038 C 135.866084 22.30166 136.830334 21.677804 137.949093 21.294333 C 139.070713 20.908001 140.25242 20.713404 141.522827 20.713404 C 142.484216 20.710542 143.431298 20.816426 144.366936 21.031055 C 145.302573 21.242822 146.083701 21.506101 146.70746 21.818029 L 145.708874 24.699782 C 145.396995 24.565281 145.079393 24.445089 144.753208 24.342067 C 144.39841 24.216151 144.037889 24.107406 143.668784 24.024416 C 143.305402 23.927117 142.936297 23.852713 142.564331 23.801202 C 142.203811 23.738244 141.860457 23.706765 141.534272 23.706765 C 139.574298 23.706765 138.149382 24.336344 137.250941 25.606948 C 136.352501 26.851797 135.90328 28.80063 135.90328 31.444861 C 135.90328 34.077645 136.352501 36.003583 137.250941 37.2284 C 138.149382 38.427462 139.548546 39.042732 141.385486 39.042732 C 142.386932 39.042732 143.305402 38.928263 144.118005 38.705049 C 144.942052 38.467526 145.688845 38.204248 146.364106 37.880873 L 146.364106 40.914298 C 145.674539 41.280598 144.950636 41.555324 144.192398 41.735612 C 143.434159 41.924486 142.447019 42.016061 141.336844 42.016061 M 159.932279 20.721989 L 161.148321 20.776362 C 161.537455 20.793532 161.926588 20.83932 162.309999 20.908001 L 161.857918 24.053033 L 160.773494 23.901362 C 160.412973 23.852713 160.06962 23.826957 159.743435 23.826957 C 158.956584 23.826957 158.241264 23.990075 157.591755 24.31345 C 156.942245 24.625378 156.39288 25.080391 155.909324 25.681353 C 155.445797 26.265144 155.085277 26.977713 154.822039 27.813336 C 154.573108 28.63465 154.450073 29.553263 154.450073 30.56345 L 154.450073 41.641175 L 151.042293 41.641175 L 151.042293 21.096875 L 153.812009 21.096875 L 154.224032 24.857177 L 154.37568 24.857177 L 155.365682 23.306124 C 155.711896 22.822493 156.109614 22.387511 156.564557 22.00404 C 157.013777 21.617708 157.511639 21.311504 158.061004 21.088289 C 158.61323 20.850767 159.291353 20.730574 159.992366 20.730574 " stroke="#000000" stroke-width="2.129" stroke-opacity="1" stroke-miterlimit="4"/></g><path fill="#000000" d="M 252.839844 203.402344 L 248.1875 203.402344 L 248.1875 175.355469 L 252.835938 175.355469 L 252.835938 203.402344 M 248.589844 165.53125 C 249.117188 165.070312 249.765625 164.84375 250.53125 164.84375 C 250.90625 164.84375 251.253906 164.902344 251.578125 165.023438 C 251.910156 165.117188 252.199219 165.289062 252.445312 165.53125 C 252.703125 165.773438 252.898438 166.078125 253.035156 166.453125 C 253.1875 166.8125 253.261719 167.246094 253.261719 167.753906 C 253.261719 168.742188 252.988281 169.484375 252.445312 169.976562 C 251.914062 170.457031 251.277344 170.691406 250.527344 170.691406 C 249.761719 170.691406 249.09375 170.332031 248.566406 169.859375 C 248.054688 169.378906 247.816406 168.640625 247.816406 167.695312 C 247.816406 166.730469 248.074219 165.992188 248.585938 165.53125 Z M 248.589844 165.53125 " fill-opacity="1" fill-rule="nonzero"/><g clip-path="url(#a3dac81754)"><path stroke-linecap="square" transform="matrix(1.365212, 0, 0, 1.365, 21.42409, 146.558237)" fill="none" stroke-linejoin="miter" d="M 169.508971 41.644037 L 166.10119 41.644037 L 166.10119 21.096875 L 169.506109 21.096875 L 169.506109 41.644037 M 166.395902 13.899644 C 166.782174 13.561961 167.257146 13.395981 167.817956 13.395981 C 168.092639 13.395981 168.347292 13.438907 168.584778 13.52762 C 168.827987 13.596302 169.039721 13.722218 169.219982 13.899644 C 169.408826 14.077071 169.55189 14.300285 169.652034 14.575011 C 169.763624 14.838289 169.817988 15.15594 169.817988 15.527964 C 169.817988 16.25198 169.617699 16.795707 169.219982 17.156284 C 168.830848 17.508275 168.36446 17.679979 167.815095 17.679979 C 167.254285 17.679979 166.765007 17.4167 166.378734 17.070432 C 166.003907 16.71844 165.829369 16.177575 165.829369 15.485038 C 165.829369 14.778193 166.018213 14.237327 166.393041 13.899644 Z M 166.395902 13.899644 " stroke="#000000" stroke-width="2.129" stroke-opacity="1" stroke-miterlimit="4"/></g><path fill="#000000" d="M 274.164062 203.914062 C 273.160156 203.914062 272.25 203.804688 271.433594 203.582031 C 270.617188 203.359375 269.875 203.070312 269.210938 202.714844 C 268.5625 202.339844 267.984375 201.902344 267.472656 201.410156 C 266.988281 200.925781 266.542969 200.40625 266.144531 199.851562 L 265.835938 199.851562 L 265.988281 201.511719 L 266.09375 202.875 L 266.140625 203.976562 L 266.140625 215.957031 L 261.492188 215.957031 L 261.492188 175.355469 L 265.273438 175.355469 L 265.9375 179.136719 L 266.144531 179.136719 C 266.535156 178.539062 266.976562 177.988281 267.472656 177.476562 C 267.976562 176.9375 268.546875 176.488281 269.183594 176.121094 C 269.847656 175.730469 270.589844 175.421875 271.40625 175.203125 C 272.226562 174.960938 273.144531 174.84375 274.164062 174.84375 C 275.765625 174.84375 277.222656 175.152344 278.53125 175.765625 C 279.882812 176.402344 280.996094 177.320312 281.878906 178.523438 C 282.816406 179.730469 283.539062 181.253906 284.0625 183.042969 C 284.589844 184.835938 284.828125 186.941406 284.828125 189.328125 C 284.828125 191.730469 284.574219 193.839844 284.0625 195.660156 C 283.554688 197.464844 282.828125 198.980469 281.878906 200.207031 C 280.960938 201.433594 279.832031 202.359375 278.535156 202.992188 C 277.222656 203.605469 275.445312 203.910156 273.84375 203.910156 M 273.269531 178.699219 C 271.976562 178.699219 270.878906 178.894531 269.976562 179.285156 C 269.082031 179.679688 268.359375 180.273438 267.800781 181.074219 C 267.257812 181.875 266.847656 182.871094 266.578125 184.078125 C 266.320312 185.269531 266.175781 186.675781 266.140625 188.292969 L 266.140625 189.339844 C 266.140625 191.058594 266.25 192.59375 266.472656 193.9375 C 266.714844 195.265625 267.105469 196.390625 267.648438 197.308594 C 268.195312 198.207031 268.9375 198.894531 269.871094 199.378906 C 270.792969 199.839844 271.941406 200.066406 273.320312 200.066406 C 275.617188 200.066406 277.304688 199.140625 278.378906 197.28125 C 279.46875 195.425781 280.011719 192.761719 280.011719 189.289062 C 280.011719 185.746094 279.46875 183.097656 278.378906 181.34375 C 277.304688 179.589844 275.601562 178.714844 273.269531 178.714844 M 300.324219 200.105469 C 300.632812 200.105469 300.972656 200.078125 301.351562 200.054688 L 302.472656 199.925781 L 303.429688 199.746094 L 304.117188 199.566406 L 304.117188 203.09375 C 303.898438 203.195312 303.617188 203.296875 303.273438 203.398438 C 302.933594 203.5 302.558594 203.585938 302.152344 203.65625 C 301.730469 203.742188 301.304688 203.800781 300.875 203.835938 C 300.441406 203.886719 300.007812 203.910156 299.570312 203.910156 C 298.570312 203.917969 297.59375 203.78125 296.632812 203.5 C 295.730469 203.230469 294.945312 202.765625 294.28125 202.097656 C 293.636719 201.429688 293.125 200.539062 292.75 199.414062 C 292.375 198.273438 292.1875 196.84375 292.1875 195.121094 L 292.1875 178.851562 L 288.226562 178.851562 L 288.226562 176.78125 L 292.1875 174.789062 L 294.179688 168.914062 L 296.863281 168.914062 L 296.863281 175.351562 L 303.914062 175.351562 L 303.914062 178.851562 L 296.863281 178.851562 L 296.863281 195.121094 C 296.863281 196.761719 297.125 198.015625 297.65625 198.851562 C 298.199219 199.671875 299.085938 200.101562 300.3125 200.101562 " fill-opacity="1" fill-rule="nonzero"/><g clip-path="url(#b88bd99ef0)"><path stroke-linecap="butt" transform="matrix(1.365212, 0, 0, 1.365, 21.42409, 146.558237)" fill="none" stroke-linejoin="miter" d="M 185.128678 42.018923 C 184.39333 42.018923 183.726653 41.938794 183.128646 41.775676 C 182.530639 41.612558 181.986997 41.400791 181.50058 41.140374 C 181.025608 40.865649 180.602139 40.545136 180.227312 40.184559 C 179.872513 39.829706 179.546328 39.449097 179.254478 39.042732 L 179.028437 39.042732 L 179.140027 40.258964 L 179.217281 41.257705 L 179.251616 42.06471 L 179.251616 50.841611 L 175.846698 50.841611 L 175.846698 21.096875 L 178.616413 21.096875 L 179.10283 23.867021 L 179.254478 23.867021 C 179.540605 23.429178 179.86393 23.025675 180.227312 22.65079 C 180.596416 22.255872 181.014163 21.926774 181.480551 21.657772 C 181.966968 21.3716 182.51061 21.145524 183.108617 20.985267 C 183.709485 20.807841 184.381885 20.721989 185.128678 20.721989 C 186.301801 20.721989 187.369057 20.948065 188.327585 21.397355 C 189.317587 21.863816 190.13305 22.536321 190.779699 23.417731 C 191.466405 24.302003 191.995741 25.418075 192.379152 26.728743 C 192.765425 28.042273 192.939962 29.584741 192.939962 31.333254 C 192.939962 33.093212 192.753979 34.638542 192.379152 35.972105 C 192.007186 37.29422 191.474989 38.404568 190.779699 39.303149 C 190.107299 40.201729 189.28039 40.879957 188.330446 41.343556 C 187.369057 41.792847 186.067177 42.016061 184.894053 42.016061 M 184.473446 23.546508 C 183.526363 23.546508 182.722345 23.689595 182.06139 23.975767 C 181.406158 24.264801 180.876821 24.699782 180.467659 25.286435 C 180.069941 25.873088 179.769507 26.602827 179.572079 27.487099 C 179.383235 28.359925 179.277368 29.390144 179.251616 30.574897 L 179.251616 31.341839 C 179.251616 32.600996 179.331732 33.725653 179.494825 34.710085 C 179.672224 35.683071 179.958352 36.507247 180.356069 37.179751 C 180.756648 37.837947 181.30029 38.34161 181.984135 38.696464 C 182.659397 39.034147 183.500612 39.200127 184.510642 39.200127 C 186.193073 39.200127 187.429144 38.521899 188.215995 37.159719 C 189.014291 35.800401 189.412009 33.848707 189.412009 31.304636 C 189.412009 28.709055 189.014291 26.768807 188.215995 25.483894 C 187.429144 24.198981 186.181628 23.557955 184.473446 23.557955 M 204.290646 39.228744 C 204.516686 39.228744 204.765617 39.208712 205.043161 39.191542 L 205.864348 39.097105 L 206.56536 38.965466 L 207.068945 38.833826 L 207.068945 41.417961 C 206.908713 41.492366 206.702701 41.566771 206.450909 41.641175 C 206.201978 41.71558 205.927296 41.778538 205.629723 41.830049 C 205.320705 41.893007 205.008826 41.935933 204.694086 41.961688 C 204.376484 41.998891 204.058882 42.016061 203.738419 42.016061 C 203.005932 42.021784 202.290613 41.921624 201.586739 41.71558 C 200.925785 41.518121 200.350668 41.177576 199.864251 40.688222 C 199.39214 40.198868 199.017313 39.546395 198.742631 38.722219 C 198.467948 37.886596 198.330607 36.839206 198.330607 35.577187 L 198.330607 23.658116 L 195.429273 23.658116 L 195.429273 22.141403 L 198.330607 20.681925 L 199.789858 16.377895 L 201.755555 16.377895 L 201.755555 21.094013 L 206.920158 21.094013 L 206.920158 23.658116 L 201.755555 23.658116 L 201.755555 35.577187 C 201.755555 36.77911 201.94726 37.697723 202.336394 38.310131 C 202.734111 38.911093 203.383621 39.225882 204.282062 39.225882 " stroke="#000000" stroke-width="2.129" stroke-opacity="1" stroke-miterlimit="4"/></g></svg>