<svg xmlns="http://www.w3.org/2000/svg" xmlns:xlink="http://www.w3.org/1999/xlink" width="500" zoomAndPan="magnify" viewBox="0 0 375 374.999991" height="500" preserveAspectRatio="xMidYMid meet" version="1.0"><defs><clipPath id="740d60743e"><path d="M 34.917969 111.210938 L 340.167969 111.210938 L 340.167969 263.460938 L 34.917969 263.460938 Z M 34.917969 111.210938 " clip-rule="nonzero"/></clipPath></defs><g clip-path="url(#740d60743e)"><path fill="#000000" d="M 314.730469 111.210938 L 60.355469 111.210938 C 46.367188 111.210938 34.917969 122.628906 34.917969 136.585938 L 34.917969 238.085938 C 34.917969 252.039062 46.367188 263.460938 60.355469 263.460938 L 314.730469 263.460938 C 328.722656 263.460938 340.167969 252.039062 340.167969 238.085938 L 340.167969 136.585938 C 340.167969 122.628906 328.722656 111.210938 314.730469 111.210938 Z M 126.492188 200.023438 C 126.492188 202.558594 127.765625 203.828125 127.765625 205.097656 C 127.765625 206.367188 129.039062 207.632812 130.308594 207.632812 C 131.582031 207.632812 132.851562 208.902344 135.398438 208.902344 C 136.667969 208.902344 137.941406 208.902344 139.210938 208.902344 C 140.484375 208.902344 141.757812 207.632812 141.757812 207.632812 C 141.757812 207.632812 143.027344 205.097656 143.027344 203.828125 C 143.027344 202.558594 143.027344 200.023438 144.300781 198.753906 L 157.019531 198.753906 C 157.019531 206.367188 154.476562 211.441406 150.660156 215.246094 C 146.84375 219.054688 141.757812 220.320312 135.398438 220.320312 C 131.582031 220.320312 129.039062 220.320312 126.492188 219.054688 C 123.949219 217.785156 120.132812 215.246094 118.863281 212.710938 C 117.589844 210.171875 115.046875 207.632812 115.046875 203.828125 C 113.773438 200.023438 113.773438 196.214844 113.773438 192.410156 L 113.773438 182.257812 C 113.773438 178.453125 113.773438 173.378906 115.046875 170.839844 C 116.320312 168.304688 117.589844 164.496094 120.132812 161.960938 C 122.679688 159.421875 123.949219 158.152344 127.765625 156.882812 C 130.308594 155.617188 134.125 155.617188 136.667969 155.617188 C 143.027344 155.617188 149.386719 158.152344 151.929688 161.960938 C 155.746094 165.765625 157.019531 170.839844 158.289062 178.453125 L 145.570312 178.453125 C 145.570312 175.914062 145.570312 174.648438 145.570312 173.378906 C 145.570312 172.109375 144.300781 170.839844 144.300781 169.570312 C 143.027344 168.304688 143.027344 168.304688 141.757812 167.035156 C 140.484375 167.035156 139.210938 167.035156 137.941406 167.035156 C 136.667969 167.035156 135.398438 167.035156 134.125 168.304688 C 132.851562 169.570312 131.582031 169.570312 131.582031 170.839844 C 131.582031 172.109375 126.492188 172.109375 126.492188 174.648438 C 126.492188 177.183594 126.492188 179.722656 126.492188 182.257812 L 126.492188 193.679688 C 125.222656 196.214844 125.222656 198.753906 126.492188 200.023438 Z M 182.457031 175.914062 C 182.457031 177.183594 183.726562 177.183594 185 178.453125 C 186.273438 179.722656 186.273438 179.722656 187.542969 180.992188 C 188.816406 182.257812 190.085938 182.257812 191.359375 182.257812 C 193.902344 183.527344 196.445312 184.796875 198.992188 186.066406 C 201.535156 187.335938 202.804688 188.601562 204.078125 189.871094 C 205.351562 191.140625 206.621094 193.679688 207.894531 194.945312 C 209.164062 197.484375 209.164062 198.753906 209.164062 202.558594 C 209.164062 205.097656 209.164062 207.632812 207.894531 210.171875 C 206.621094 212.710938 205.351562 213.976562 204.078125 215.246094 C 202.804688 216.515625 200.261719 217.785156 197.71875 219.054688 C 195.175781 220.320312 192.632812 220.320312 190.085938 220.320312 C 187.542969 220.320312 185 220.320312 182.457031 219.054688 C 179.914062 217.785156 177.367188 216.515625 174.824219 215.246094 C 172.28125 213.976562 171.007812 211.441406 169.738281 208.902344 C 168.464844 206.367188 168.464844 203.828125 168.464844 200.023438 L 181.183594 200.023438 C 181.183594 202.558594 181.183594 203.828125 181.183594 205.097656 C 181.183594 206.367188 182.457031 207.632812 182.457031 208.902344 C 183.726562 210.171875 183.726562 210.171875 185 210.171875 C 186.273438 210.171875 187.542969 210.171875 188.816406 210.171875 C 190.085938 210.171875 191.359375 210.171875 191.359375 210.171875 C 191.359375 210.171875 192.632812 208.902344 193.902344 208.902344 C 195.175781 208.902344 195.175781 207.632812 195.175781 206.367188 C 195.175781 205.097656 195.175781 205.097656 195.175781 203.828125 C 195.175781 202.558594 195.175781 201.289062 195.175781 201.289062 C 195.175781 200.023438 195.175781 200.023438 193.902344 198.753906 C 192.632812 197.484375 192.632812 197.484375 191.359375 196.214844 C 190.085938 194.945312 188.816406 194.945312 186.273438 193.679688 C 183.726562 192.410156 181.183594 191.140625 179.914062 191.140625 C 178.640625 191.140625 176.097656 187.335938 174.824219 184.796875 C 173.554688 182.257812 172.28125 180.992188 171.007812 179.722656 C 169.738281 178.453125 169.738281 174.648438 169.738281 172.109375 C 169.738281 169.570312 169.738281 167.035156 171.007812 164.496094 C 172.28125 161.960938 173.554688 160.691406 174.824219 159.421875 C 176.097656 158.152344 178.640625 156.882812 181.183594 155.617188 C 183.726562 154.347656 186.273438 154.347656 188.816406 154.347656 C 191.359375 154.347656 195.175781 154.347656 196.445312 155.617188 C 197.71875 156.882812 201.535156 158.152344 202.804688 159.421875 C 204.078125 160.691406 205.351562 163.226562 206.621094 165.765625 C 207.894531 168.304688 207.894531 170.839844 207.894531 173.378906 L 195.175781 173.378906 C 195.175781 172.109375 195.175781 170.839844 195.175781 169.570312 C 195.175781 168.304688 193.902344 167.035156 193.902344 167.035156 C 193.902344 167.035156 192.632812 165.765625 191.359375 165.765625 C 190.085938 165.765625 188.816406 164.496094 187.542969 164.496094 C 186.273438 164.496094 185 164.496094 185 164.496094 C 185 164.496094 183.726562 165.765625 182.457031 165.765625 C 182.457031 167.035156 181.183594 167.035156 181.183594 168.304688 C 181.183594 169.570312 181.183594 169.570312 181.183594 170.839844 C 181.183594 173.378906 182.457031 174.648438 182.457031 175.914062 Z M 234.601562 175.914062 C 234.601562 177.183594 235.875 177.183594 237.148438 178.453125 C 238.417969 179.722656 238.417969 179.722656 239.691406 180.992188 C 240.960938 182.257812 242.234375 182.257812 243.507812 182.257812 C 246.050781 183.527344 248.59375 184.796875 251.136719 186.066406 C 253.679688 187.335938 254.953125 188.601562 256.226562 189.871094 C 257.496094 191.140625 258.769531 193.679688 260.039062 194.945312 C 261.3125 197.484375 261.3125 198.753906 261.3125 202.558594 C 261.3125 205.097656 261.3125 207.632812 260.039062 210.171875 C 258.769531 212.710938 257.496094 213.976562 256.226562 215.246094 C 254.953125 216.515625 252.410156 217.785156 249.867188 219.054688 C 247.320312 220.320312 244.777344 220.320312 242.234375 220.320312 C 239.691406 220.320312 237.148438 220.320312 234.601562 219.054688 C 232.058594 217.785156 229.515625 216.515625 226.972656 215.246094 C 224.429688 213.976562 223.15625 211.441406 221.882812 208.902344 C 220.613281 206.367188 220.613281 203.828125 220.613281 200.023438 L 233.332031 200.023438 C 233.332031 202.558594 233.332031 203.828125 233.332031 205.097656 C 233.332031 206.367188 234.601562 207.632812 234.601562 208.902344 C 235.875 210.171875 235.875 210.171875 237.148438 210.171875 C 238.417969 210.171875 239.691406 210.171875 240.960938 210.171875 C 242.234375 210.171875 243.507812 210.171875 243.507812 210.171875 C 243.507812 210.171875 244.777344 208.902344 246.050781 208.902344 C 247.320312 208.902344 247.320312 207.632812 247.320312 206.367188 C 247.320312 205.097656 247.320312 205.097656 247.320312 203.828125 C 247.320312 202.558594 247.320312 201.289062 247.320312 201.289062 C 247.320312 200.023438 247.320312 200.023438 246.050781 198.753906 C 244.777344 197.484375 244.777344 197.484375 243.507812 196.214844 C 242.234375 194.945312 240.960938 194.945312 238.417969 193.679688 C 235.875 192.410156 233.332031 191.140625 232.058594 191.140625 C 230.789062 191.140625 228.242188 188.601562 226.972656 187.335938 C 225.699219 186.066406 224.429688 183.527344 223.15625 182.257812 C 221.882812 180.992188 221.882812 177.183594 221.882812 174.648438 C 221.882812 172.109375 221.882812 169.570312 223.15625 167.035156 C 224.429688 164.496094 225.699219 163.226562 226.972656 161.960938 C 228.242188 160.691406 230.789062 159.421875 233.332031 158.152344 C 235.875 156.882812 238.417969 156.882812 240.960938 156.882812 C 243.507812 156.882812 247.320312 156.882812 248.59375 158.152344 C 249.867188 159.421875 253.679688 160.691406 254.953125 161.960938 C 256.226562 163.226562 257.496094 165.765625 258.769531 168.304688 C 260.039062 170.839844 260.039062 173.378906 260.039062 175.914062 L 247.320312 175.914062 C 247.320312 174.648438 247.320312 173.378906 247.320312 172.109375 C 247.320312 170.839844 246.050781 169.570312 246.050781 169.570312 C 246.050781 169.570312 244.777344 168.304688 243.507812 168.304688 C 242.234375 168.304688 240.960938 167.035156 239.691406 167.035156 C 238.417969 167.035156 237.148438 167.035156 237.148438 167.035156 C 237.148438 167.035156 235.875 168.304688 234.601562 168.304688 C 234.601562 169.570312 233.332031 169.570312 233.332031 170.839844 C 233.332031 172.109375 233.332031 172.109375 233.332031 173.378906 C 234.601562 173.378906 234.601562 174.648438 234.601562 175.914062 Z M 234.601562 175.914062 " fill-opacity="1" fill-rule="nonzero"/></g></svg>