<svg xmlns="http://www.w3.org/2000/svg" xmlns:xlink="http://www.w3.org/1999/xlink" width="500" zoomAndPan="magnify" viewBox="0 0 375 374.999991" height="500" preserveAspectRatio="xMidYMid meet" version="1.0"><defs><clipPath id="fdbf4b401c"><path d="M 34.851562 163 L 243 163 L 243 212 L 34.851562 212 Z M 34.851562 163 " clip-rule="nonzero"/></clipPath><clipPath id="d65aca0313"><path d="M 250 136.152344 L 340.101562 136.152344 L 340.101562 238.902344 L 250 238.902344 Z M 250 136.152344 " clip-rule="nonzero"/></clipPath></defs><g clip-path="url(#fdbf4b401c)"><path fill="#000000" d="M 34.851562 163.140625 L 51.050781 163.140625 L 51.050781 179.152344 L 65.867188 179.152344 L 65.867188 163.140625 L 82.066406 163.140625 L 82.066406 211.632812 L 65.867188 211.632812 L 65.867188 195.421875 L 51.050781 195.421875 L 51.050781 211.632812 L 34.851562 211.632812 Z M 103.367188 179.222656 L 89.078125 179.222656 L 89.078125 163.144531 L 133.804688 163.144531 L 133.804688 179.222656 L 119.535156 179.222656 L 119.535156 211.640625 L 103.335938 211.640625 L 103.335938 179.222656 Z M 140.902344 163.140625 L 157.792969 163.140625 L 168.183594 180.207031 L 178.566406 163.140625 L 195.433594 163.140625 L 195.433594 211.632812 L 179.300781 211.632812 L 179.300781 187.59375 L 168.160156 204.839844 L 167.882812 204.839844 L 156.78125 187.597656 L 156.78125 211.636719 L 140.933594 211.636719 Z M 203.515625 163.140625 L 219.71875 163.140625 L 219.71875 195.636719 L 242.496094 195.636719 L 242.496094 211.664062 L 203.519531 211.664062 Z M 203.515625 163.140625 " fill-opacity="1" fill-rule="nonzero"/></g><g clip-path="url(#d65aca0313)"><path fill="#e44d26" d="M 250.203125 136.363281 L 340.121094 136.363281 L 331.929688 228.195312 L 295.09375 238.414062 L 258.375 228.210938 Z M 250.203125 136.363281 " fill-opacity="1" fill-rule="nonzero"/></g><path fill="#f16529" d="M 324.921875 222.351562 L 331.921875 143.871094 L 295.203125 143.871094 L 295.203125 230.605469 Z M 324.921875 222.351562 " fill-opacity="1" fill-rule="nonzero"/><path fill="#ebebeb" d="M 280.273438 177.9375 L 279.242188 166.402344 L 295.195312 166.402344 L 295.195312 155.140625 L 266.972656 155.140625 L 270.007812 189.203125 L 295.195312 189.203125 L 295.195312 177.941406 Z M 270.476562 194.839844 L 272.054688 212.53125 L 295.113281 218.933594 L 295.164062 218.921875 L 295.164062 207.203125 L 295.117188 207.21875 L 282.613281 203.804688 L 281.808594 194.816406 L 275.71875 194.816406 Z M 270.476562 194.839844 " fill-opacity="1" fill-rule="nonzero"/><path fill="#ffffff" d="M 321.03125 180.957031 L 321.304688 177.933594 L 295.140625 177.933594 L 295.140625 189.195312 L 309 189.195312 L 307.695312 203.808594 L 295.140625 207.195312 L 295.140625 218.914062 L 318.21875 212.515625 L 318.390625 210.609375 Z M 295.164062 166.402344 L 322.355469 166.402344 L 323.367188 155.109375 L 295.164062 155.109375 Z M 295.164062 166.402344 " fill-opacity="1" fill-rule="nonzero"/></svg>