<svg xmlns="http://www.w3.org/2000/svg" xmlns:xlink="http://www.w3.org/1999/xlink" width="500" zoomAndPan="magnify" viewBox="0 0 375 374.999991" height="500" preserveAspectRatio="xMidYMid meet" version="1.0"><defs><clipPath id="5461e0e335"><path d="M 214 135 L 339.996094 135 L 339.996094 238 L 214 238 Z M 214 135 " clip-rule="nonzero"/></clipPath></defs><g clip-path="url(#5461e0e335)"><path fill="#362701" d="M 239.421875 171.558594 C 233.917969 171.558594 229.8125 174.265625 229.8125 180.78125 C 229.8125 185.640625 232.515625 189.09375 239.121094 189.09375 C 244.722656 189.09375 248.523438 185.789062 248.523438 180.574219 C 248.523438 174.660156 245.125 171.558594 239.421875 171.558594 Z M 228.414062 217.554688 C 227.113281 219.15625 225.8125 220.863281 225.8125 222.824219 C 225.8125 226.828125 230.910156 228.035156 237.917969 228.035156 C 243.722656 228.035156 251.628906 227.632812 251.628906 222.222656 C 251.628906 219.015625 247.824219 218.8125 243.019531 218.511719 L 228.453125 217.515625 Z M 258.035156 171.855469 C 259.832031 174.167969 261.738281 177.367188 261.738281 181.980469 C 261.738281 193.097656 252.996094 199.613281 240.425781 199.613281 C 237.1875 199.613281 234.355469 199.207031 232.515625 198.710938 L 229.214844 203.980469 L 239.023438 204.578125 C 256.339844 205.683594 266.539062 206.1875 266.539062 219.507812 C 266.539062 231.035156 256.4375 237.539062 239.023438 237.539062 C 220.914062 237.539062 214.011719 232.929688 214.011719 224.976562 C 214.011719 220.46875 216.019531 218.0625 219.515625 214.753906 C 216.210938 213.359375 215.113281 210.847656 215.113281 208.144531 C 215.113281 205.941406 216.210938 203.929688 218.015625 202.066406 L 224.21875 196.054688 C 219.3125 193.65625 215.605469 188.4375 215.605469 181.0625 C 215.605469 169.539062 223.214844 161.625 238.523438 161.625 C 242.832031 161.625 245.433594 162.023438 247.734375 162.628906 L 267.246094 162.628906 L 267.246094 171.144531 L 258.039062 171.84375 M 284.847656 153.644531 C 279.183594 153.644531 275.839844 150.335938 275.839844 144.617188 C 275.839844 138.902344 279.144531 135.800781 284.847656 135.800781 C 290.652344 135.800781 293.953125 138.914062 293.953125 144.617188 C 293.953125 150.324219 290.652344 153.644531 284.851562 153.644531 Z M 271.898438 213.867188 L 271.898438 205.957031 L 277.007812 205.257812 C 278.40625 205.054688 278.609375 204.753906 278.609375 203.246094 L 278.609375 173.792969 C 278.609375 172.691406 278.308594 171.992188 277.304688 171.6875 L 271.898438 169.785156 L 273 161.671875 L 293.714844 161.671875 L 293.714844 203.265625 C 293.714844 204.867188 293.8125 205.066406 295.320312 205.273438 L 300.417969 205.972656 L 300.417969 213.875 L 271.890625 213.875 M 340.027344 209.988281 C 335.722656 212.09375 329.417969 214.039062 323.714844 214.039062 C 311.800781 214.039062 307.300781 209.234375 307.300781 197.90625 L 307.300781 171.648438 C 307.300781 171.046875 307.300781 170.644531 306.492188 170.644531 L 299.53125 170.644531 L 299.53125 161.726562 C 308.335938 160.757812 311.84375 156.316406 312.945312 145.390625 L 322.449219 145.390625 L 322.449219 159.621094 C 322.449219 160.316406 322.449219 160.625 323.253906 160.625 L 337.367188 160.625 L 337.367188 170.644531 L 322.414062 170.644531 L 322.414062 194.550781 C 322.414062 200.464844 323.816406 202.769531 329.210938 202.769531 C 332.011719 202.769531 334.875 202.066406 337.316406 201.167969 L 340.019531 209.984375 " fill-opacity="1" fill-rule="nonzero"/></g><path fill="#f03c2e" d="M 170.277344 181.21875 L 110.289062 121.148438 C 106.839844 117.691406 101.238281 117.691406 97.78125 121.148438 L 85.328125 133.625 L 101.125 149.441406 C 104.796875 148.199219 109.007812 149.039062 111.925781 151.960938 C 112.621094 152.660156 113.210938 153.441406 113.6875 154.308594 C 114.164062 155.171875 114.515625 156.085938 114.734375 157.046875 C 114.957031 158.011719 115.039062 158.988281 114.984375 159.972656 C 114.933594 160.960938 114.746094 161.917969 114.421875 162.851562 L 129.648438 178.101562 C 133.289062 176.832031 137.578125 177.65625 140.523438 180.597656 C 141.179688 181.253906 141.738281 181.980469 142.199219 182.78125 C 142.664062 183.582031 143.015625 184.429688 143.253906 185.324219 C 143.492188 186.21875 143.613281 187.128906 143.613281 188.054688 C 143.613281 188.980469 143.496094 189.890625 143.253906 190.785156 C 143.015625 191.679688 142.664062 192.527344 142.203125 193.328125 C 141.738281 194.128906 141.179688 194.855469 140.527344 195.511719 C 139.871094 196.164062 139.144531 196.722656 138.34375 197.183594 C 137.542969 197.648438 136.695312 197.996094 135.800781 198.234375 C 134.910156 198.476562 134 198.59375 133.078125 198.59375 C 132.152344 198.59375 131.246094 198.476562 130.351562 198.234375 C 129.460938 197.996094 128.613281 197.644531 127.8125 197.183594 C 127.015625 196.71875 126.289062 196.160156 125.632812 195.507812 C 122.542969 192.40625 121.78125 187.855469 123.347656 184.039062 L 109.183594 169.859375 L 109.183594 207.285156 C 110.15625 207.78125 111.132812 208.441406 111.96875 209.277344 C 116.078125 213.394531 116.078125 220.066406 111.96875 224.1875 C 111.480469 224.679688 110.949219 225.117188 110.371094 225.5 C 109.796875 225.886719 109.191406 226.210938 108.554688 226.476562 C 107.914062 226.742188 107.257812 226.941406 106.578125 227.074219 C 105.898438 227.210938 105.214844 227.277344 104.523438 227.277344 C 103.832031 227.277344 103.148438 227.210938 102.46875 227.074219 C 101.792969 226.941406 101.132812 226.742188 100.496094 226.476562 C 99.855469 226.210938 99.25 225.886719 98.675781 225.5 C 98.101562 225.117188 97.570312 224.679688 97.082031 224.1875 C 92.96875 220.0625 92.96875 213.394531 97.082031 209.277344 C 98.078125 208.28125 99.226562 207.511719 100.527344 206.976562 L 100.527344 169.210938 C 99.3125 168.691406 98.101562 167.933594 97.082031 166.941406 C 96.34375 166.203125 95.726562 165.371094 95.234375 164.449219 C 94.742188 163.523438 94.398438 162.550781 94.195312 161.523438 C 93.992188 160.5 93.945312 159.464844 94.050781 158.425781 C 94.15625 157.382812 94.410156 156.382812 94.816406 155.417969 L 79.238281 139.816406 L 38.078125 180.933594 C 37.671875 181.347656 37.304688 181.796875 36.984375 182.28125 C 36.660156 182.761719 36.390625 183.273438 36.167969 183.8125 C 35.945312 184.347656 35.777344 184.902344 35.664062 185.472656 C 35.554688 186.042969 35.496094 186.621094 35.496094 187.203125 C 35.496094 187.78125 35.554688 188.359375 35.664062 188.929688 C 35.777344 189.5 35.945312 190.054688 36.167969 190.589844 C 36.390625 191.128906 36.660156 191.640625 36.984375 192.125 C 37.304688 192.605469 37.671875 193.054688 38.078125 193.46875 L 98.070312 253.535156 C 101.523438 256.992188 107.125 256.992188 110.582031 253.535156 L 170.277344 193.75 C 170.6875 193.335938 171.054688 192.890625 171.375 192.40625 C 171.699219 191.921875 171.96875 191.410156 172.191406 190.871094 C 172.414062 190.335938 172.582031 189.78125 172.691406 189.210938 C 172.804688 188.640625 172.863281 188.066406 172.863281 187.484375 C 172.863281 186.902344 172.804688 186.324219 172.691406 185.753906 C 172.582031 185.183594 172.414062 184.632812 172.191406 184.09375 C 171.96875 183.554688 171.699219 183.046875 171.375 182.5625 C 171.054688 182.078125 170.6875 181.628906 170.277344 181.21875 " fill-opacity="1" fill-rule="nonzero"/></svg>