<svg xmlns="http://www.w3.org/2000/svg" xmlns:xlink="http://www.w3.org/1999/xlink" width="500" zoomAndPan="magnify" viewBox="0 0 375 374.999991" height="500" preserveAspectRatio="xMidYMid meet" version="1.0"><path fill="#3d6bd7" d="M 143.121094 253.34375 C 131.886719 225.628906 129.417969 201.722656 149.5 180.320312 C 164.5625 160.664062 203.910156 141.082031 207.316406 116.261719 C 214.382812 65.285156 148.453125 78.574219 153.726562 115.527344 C 156.429688 134.363281 148.636719 142.089844 134.617188 148.640625 C 115.589844 157.566406 102.339844 157.355469 100.527344 109.765625 C 99.296875 77.101562 124.046875 47.515625 155.835938 41.765625 C 194.167969 31.300781 253.464844 49.199219 266.640625 88.859375 C 276.378906 117.523438 263.046875 152.582031 236.136719 171.777344 C 194.117188 201.78125 175.589844 209.359375 175.511719 245.753906 C 175.457031 263.1875 149.921875 270.097656 143.121094 253.34375 Z M 143.121094 253.34375 " fill-opacity="1" fill-rule="nonzero"/><path fill="#3d6bd7" d="M 199.265625 300.523438 C 201.679688 309.207031 201.203125 319.027344 196.242188 326.765625 C 185.5 343.585938 165.949219 341.488281 150.523438 335.058594 C 137.421875 329.625 132.175781 313.34375 137.945312 300.804688 C 144.855469 285.8125 156.503906 278.253906 169.652344 278.808594 C 187.234375 279.542969 194.980469 285.078125 199.265625 300.523438 Z M 199.265625 300.523438 " fill-opacity="1" fill-rule="nonzero"/></svg>