<svg xmlns="http://www.w3.org/2000/svg" xmlns:xlink="http://www.w3.org/1999/xlink" width="500" zoomAndPan="magnify" viewBox="0 0 375 374.999991" height="500" preserveAspectRatio="xMidYMid meet" version="1.2"><defs><clipPath id="c1210948d3"><path d="M 66.414062 86.089844 L 308.664062 86.089844 L 308.664062 288.589844 L 66.414062 288.589844 Z M 66.414062 86.089844 "/></clipPath></defs><g id="b009d95535"><path style=" stroke:none;fill-rule:nonzero;fill:#98ccfd;fill-opacity:1;" d="M 250.289062 207.992188 L 71.628906 207.992188 C 71.628906 207.992188 71.625 250.878906 71.625 250.882812 C 71.625 268.867188 111.621094 283.445312 160.960938 283.445312 C 210.296875 283.445312 250.292969 268.867188 250.292969 250.882812 C 250.292969 250.878906 250.289062 207.992188 250.289062 207.992188 Z M 250.289062 207.992188 "/><path style=" stroke:none;fill-rule:nonzero;fill:#dff0fe;fill-opacity:1;" d="M 250.289062 165.875 L 71.628906 165.875 C 71.628906 165.875 71.625 208.757812 71.625 208.765625 C 71.625 226.746094 111.621094 241.324219 160.960938 241.324219 C 210.296875 241.324219 250.292969 226.746094 250.292969 208.765625 C 250.292969 208.757812 250.289062 165.875 250.289062 165.875 Z M 250.289062 165.875 "/><path style=" stroke:none;fill-rule:nonzero;fill:#ffffff;fill-opacity:1;" d="M 250.289062 123.808594 L 71.628906 123.808594 C 71.628906 123.808594 71.625 166.691406 71.625 166.699219 C 71.625 184.683594 111.621094 199.261719 160.960938 199.261719 C 210.296875 199.261719 250.292969 184.683594 250.292969 166.699219 C 250.292969 166.691406 250.289062 123.808594 250.289062 123.808594 Z M 250.289062 123.808594 "/><path style=" stroke:none;fill-rule:nonzero;fill:#ffffff;fill-opacity:1;" d="M 160.960938 156.355469 C 210.296875 156.355469 250.292969 141.773438 250.292969 123.792969 C 250.292969 105.808594 210.296875 91.230469 160.960938 91.230469 C 111.621094 91.230469 71.625 105.808594 71.625 123.792969 C 71.625 141.773438 111.621094 156.355469 160.960938 156.355469 Z M 160.960938 156.355469 "/><path style=" stroke:none;fill-rule:nonzero;fill:#ffffff;fill-opacity:1;" d="M 286.847656 176.890625 L 177.566406 176.890625 C 168.394531 176.890625 160.960938 184.308594 160.960938 193.464844 L 160.960938 245.679688 C 160.960938 254.832031 168.394531 262.253906 177.566406 262.253906 L 286.847656 262.253906 C 296.019531 262.253906 303.453125 254.832031 303.453125 245.679688 L 303.453125 193.464844 C 303.453125 184.308594 296.019531 176.890625 286.847656 176.890625 Z M 286.847656 176.890625 "/><path style=" stroke:none;fill-rule:nonzero;fill:#dff0fe;fill-opacity:1;" d="M 236.121094 199.644531 L 227.953125 199.644531 C 224.519531 199.644531 221.734375 202.421875 221.734375 205.851562 L 221.734375 227.679688 C 221.734375 231.105469 224.519531 233.886719 227.953125 233.886719 L 236.121094 233.886719 C 239.554688 233.886719 242.339844 231.105469 242.339844 227.679688 L 242.339844 205.851562 C 242.339844 202.421875 239.554688 199.644531 236.121094 199.644531 Z M 236.121094 199.644531 "/><g clip-rule="nonzero" clip-path="url(#c1210948d3)"><path style=" stroke:none;fill-rule:nonzero;fill:#2a5075;fill-opacity:1;" d="M 286.847656 171.746094 L 255.441406 171.746094 L 255.441406 123.808594 C 255.441406 123.808594 255.441406 123.804688 255.441406 123.800781 C 255.441406 123.796875 255.441406 123.792969 255.441406 123.789062 C 255.441406 99.300781 206.761719 86.089844 160.957031 86.089844 C 115.152344 86.089844 66.472656 99.300781 66.472656 123.789062 C 66.472656 123.796875 66.476562 123.804688 66.476562 123.808594 L 66.472656 250.882812 C 66.472656 275.375 115.152344 288.585938 160.957031 288.585938 C 198.351562 288.585938 231.710938 280.292969 246.640625 267.394531 L 286.847656 267.394531 C 298.847656 267.394531 308.605469 257.652344 308.605469 245.675781 L 308.605469 193.460938 C 308.605469 181.488281 298.847656 171.746094 286.847656 171.746094 Z M 177.566406 171.746094 C 165.566406 171.746094 155.804688 181.488281 155.804688 193.460938 L 155.804688 194.023438 C 109.046875 193.046875 76.804688 179.167969 76.777344 166.714844 L 76.777344 141.546875 C 93.453125 154.578125 127.90625 161.496094 160.957031 161.496094 C 194.011719 161.496094 228.464844 154.578125 245.140625 141.542969 L 245.140625 166.699219 C 245.140625 168.335938 244.519531 170.027344 243.335938 171.746094 Z M 76.777344 208.777344 L 76.777344 184.417969 C 92.609375 196.78125 124.441406 203.632812 155.804688 204.308594 L 155.804688 236.09375 C 109.085938 235.109375 76.804688 221.175781 76.777344 208.777344 Z M 160.957031 96.371094 C 209.136719 96.371094 245.140625 110.851562 245.140625 123.789062 C 245.140625 136.734375 209.136719 151.210938 160.957031 151.210938 C 112.777344 151.210938 76.777344 136.734375 76.777344 123.789062 C 76.777344 110.851562 112.777344 96.371094 160.957031 96.371094 Z M 160.957031 278.300781 C 112.777344 278.300781 76.777344 263.824219 76.777344 250.882812 L 76.777344 226.441406 C 92.648438 238.828125 124.574219 245.71875 155.878906 246.378906 C 156.257812 258.023438 165.808594 267.394531 177.566406 267.394531 L 226.675781 267.394531 C 210.746094 274.140625 186.714844 278.300781 160.957031 278.300781 Z M 298.300781 245.675781 C 298.300781 251.984375 293.164062 257.109375 286.847656 257.109375 L 177.566406 257.109375 C 171.25 257.109375 166.109375 251.984375 166.109375 245.675781 L 166.109375 193.460938 C 166.109375 187.15625 171.25 182.03125 177.566406 182.03125 L 286.847656 182.03125 C 293.164062 182.03125 298.300781 187.15625 298.300781 193.460938 Z M 186.777344 205.683594 L 186.777344 210.722656 C 186.777344 211.21875 187.183594 211.621094 187.679688 211.621094 L 196.175781 211.621094 C 202.355469 211.621094 207.382812 216.636719 207.382812 222.808594 L 207.382812 227.839844 C 207.382812 234.011719 202.355469 239.027344 196.175781 239.027344 L 187.679688 239.027344 C 181.5 239.027344 176.472656 234.011719 176.472656 227.839844 L 176.472656 226.5 C 176.472656 223.65625 178.78125 221.355469 181.625 221.355469 C 184.472656 221.355469 186.777344 223.65625 186.777344 226.5 L 186.777344 227.839844 C 186.777344 228.335938 187.183594 228.742188 187.679688 228.742188 L 196.175781 228.742188 C 196.671875 228.742188 197.082031 228.335938 197.082031 227.839844 L 197.082031 222.808594 C 197.082031 222.3125 196.671875 221.90625 196.175781 221.90625 L 187.679688 221.90625 C 181.5 221.90625 176.472656 216.886719 176.472656 210.722656 L 176.472656 205.683594 C 176.472656 199.519531 181.5 194.503906 187.679688 194.503906 L 196.175781 194.503906 C 202.355469 194.503906 207.382812 199.519531 207.382812 205.683594 C 207.382812 208.527344 205.078125 210.828125 202.234375 210.828125 C 199.386719 210.828125 197.082031 208.527344 197.082031 205.683594 C 197.082031 205.1875 196.671875 204.785156 196.175781 204.785156 L 187.679688 204.785156 C 187.183594 204.785156 186.777344 205.1875 186.777344 205.683594 Z M 247.492188 227.679688 L 247.492188 205.851562 C 247.492188 199.59375 242.390625 194.503906 236.121094 194.503906 L 227.953125 194.503906 C 221.683594 194.503906 216.582031 199.59375 216.582031 205.851562 L 216.582031 227.679688 C 216.582031 233.9375 221.683594 239.027344 227.953125 239.027344 L 236.121094 239.027344 C 236.367188 239.027344 236.597656 238.972656 236.839844 238.957031 C 240.027344 242.136719 244.847656 243.410156 249.242188 242.105469 C 253.582031 240.253906 246.75 235.820312 245.855469 233.453125 C 246.871094 231.753906 247.492188 229.796875 247.492188 227.679688 Z M 226.882812 227.679688 L 226.882812 205.851562 C 226.882812 205.261719 227.367188 204.785156 227.953125 204.785156 L 236.121094 204.785156 C 236.710938 204.785156 237.1875 205.261719 237.1875 205.851562 L 237.1875 227.679688 C 237.1875 228.265625 236.710938 228.742188 236.121094 228.742188 L 227.953125 228.742188 C 227.367188 228.742188 226.882812 228.265625 226.882812 227.679688 Z M 288.707031 227.679688 C 288.707031 233.9375 283.605469 239.027344 277.335938 239.027344 L 269.167969 239.027344 C 262.898438 239.027344 257.796875 233.9375 257.796875 227.679688 L 257.796875 199.644531 C 257.796875 196.800781 260.101562 194.503906 262.945312 194.503906 C 265.792969 194.503906 268.097656 196.800781 268.097656 199.644531 L 268.097656 227.679688 C 268.097656 228.265625 268.578125 228.742188 269.167969 228.742188 L 277.335938 228.742188 C 277.925781 228.742188 278.402344 228.265625 278.402344 227.679688 C 278.402344 224.835938 280.710938 222.539062 283.554688 222.539062 C 286.398438 222.539062 288.707031 224.835938 288.707031 227.679688 Z M 126.738281 123.789062 C 126.738281 123.292969 127.140625 122.890625 127.636719 122.890625 L 137.941406 122.890625 C 138.4375 122.890625 138.84375 123.292969 138.84375 123.789062 C 138.84375 124.289062 138.4375 124.6875 137.941406 124.6875 L 127.636719 124.6875 C 127.140625 124.6875 126.738281 124.289062 126.738281 123.789062 Z M 152.496094 123.789062 C 152.496094 123.292969 152.898438 122.890625 153.394531 122.890625 L 163.699219 122.890625 C 164.199219 122.890625 164.601562 123.292969 164.601562 123.789062 C 164.601562 124.289062 164.199219 124.6875 163.699219 124.6875 L 153.394531 124.6875 C 152.898438 124.6875 152.496094 124.289062 152.496094 123.789062 Z M 178.253906 123.789062 C 178.253906 123.292969 178.65625 122.890625 179.15625 122.890625 L 189.457031 122.890625 C 189.957031 122.890625 190.359375 123.292969 190.359375 123.789062 C 190.359375 124.289062 189.957031 124.6875 189.457031 124.6875 L 179.15625 124.6875 C 178.65625 124.6875 178.253906 124.289062 178.253906 123.789062 Z M 178.253906 123.789062 "/></g></g></svg>